<svg width="24" height="24" viewBox="0 0 24 24" fill="none" xmlns="http://www.w3.org/2000/svg">
<path d="M11.9528 8.81885L11.4058 11.0088C12.0248 11.1628 13.9348 11.7928 14.2438 10.5528C14.5658 9.26185 12.5708 8.97385 11.9528 8.81885ZM11.1308 12.1148L10.5278 14.5298C11.2708 14.7148 13.5648 15.4508 13.9038 14.0888C14.2588 12.6668 11.8748 12.2998 11.1308 12.1148Z" fill="#A2A1A1"/>
<path d="M14.4208 2.29905C9.0638 0.964047 3.6408 4.22405 2.3058 9.58105C0.969798 14.936 4.2298 20.361 9.5828 21.697C14.9398 23.032 20.3658 19.773 21.6998 14.416C23.0358 9.06005 19.7758 3.63505 14.4208 2.29905ZM16.4118 10.574C16.2668 11.548 15.7258 12.019 15.0098 12.185C15.9948 12.697 16.4948 13.483 16.0188 14.846C15.4268 16.537 14.0208 16.68 12.1488 16.326L11.6948 18.146L10.5988 17.873L11.0458 16.079C10.7628 16.008 10.4718 15.933 10.1708 15.851L9.7218 17.655L8.6268 17.38L9.0808 15.557C8.8238 15.491 8.5638 15.421 8.2988 15.355L6.8698 15L7.4158 13.744C7.4158 13.744 8.2238 13.959 8.2128 13.943C8.5238 14.02 8.6608 13.818 8.7148 13.682L9.4338 10.807C9.4738 10.817 9.5128 10.827 9.5488 10.836C9.5048 10.818 9.4658 10.807 9.4348 10.799L9.9468 8.74605C9.9598 8.51205 9.8808 8.21805 9.4358 8.10705C9.4538 8.09605 8.6388 7.90905 8.6388 7.90905L8.9298 6.73705L10.4438 7.11505L10.4428 7.12005C10.6698 7.17705 10.9038 7.23105 11.1428 7.28505L11.5918 5.48305L12.6888 5.75605L12.2488 7.52205C12.5428 7.58905 12.8398 7.65705 13.1278 7.72905L13.5658 5.97405L14.6628 6.24705L14.2138 8.04905C15.5978 8.52805 16.6098 9.24405 16.4118 10.574Z" fill="#A2A1A1"/>
</svg>
