<svg width="19" height="19" viewBox="0 0 19 19" fill="none" xmlns="http://www.w3.org/2000/svg">
<path d="M5.17092 3.0088C5.17092 4.2172 4.19132 5.1968 2.98292 5.1968C1.77452 5.1968 0.794922 4.2172 0.794922 3.0088C0.794922 1.8004 1.77452 0.820801 2.98292 0.820801C4.19132 0.820801 5.17092 1.8004 5.17092 3.0088Z" fill="#A2A1A1"/>
<path d="M7.23722 18.9942V6.85518H10.8552V8.51518H10.9062C11.4092 7.56218 12.6392 6.55518 14.4742 6.55518C18.2962 6.55518 19.0002 9.06818 19.0002 12.3382V18.9952H15.2292V13.0912C15.2292 11.6842 15.2052 9.87318 13.2682 9.87318C11.3042 9.87318 11.0062 11.4072 11.0062 12.9912V18.9942H7.23722Z" fill="#A2A1A1"/>
<path d="M4.87021 6.85518H1.09521V18.9942H4.87021V6.85518Z" fill="#A2A1A1"/>
</svg>
