<svg width="16" height="18" viewBox="0 0 16 18" fill="none" xmlns="http://www.w3.org/2000/svg">
<path d="M12.4052 0.426289C9.48223 -0.142097 6.51793 -0.142097 3.5943 0.426289C2.31558 0.717414 0.706849 2.29318 0.392335 3.56066C-0.130778 6.01311 -0.130778 8.49922 0.392335 10.9517C0.706849 12.2191 2.31558 13.7949 3.5943 14.086C3.59463 14.0861 3.59495 14.0862 3.59527 14.0862C3.65223 14.0977 3.69376 14.1481 3.69376 14.2074V17.8001C3.69376 17.9796 3.90817 18.0681 4.03023 17.9381L5.69967 16.1867C5.69967 16.1867 7.03 14.7907 7.26921 14.5398C7.29259 14.5152 7.32488 14.5019 7.35833 14.5029C9.04385 14.5506 10.7312 14.4114 12.4052 14.0861C13.6839 13.795 15.2933 12.2192 15.6072 10.9517C16.1309 8.49928 16.1309 6.01317 15.6072 3.56073C15.2932 2.29318 13.6846 0.717414 12.4052 0.426289ZM12.4498 11.1346C12.194 11.6896 11.8219 12.1514 11.2851 12.4462C11.1337 12.5293 10.9526 12.5562 10.7817 12.61C10.5851 12.549 10.3977 12.508 10.2238 12.4342C8.4209 11.6696 6.76166 10.6832 5.44735 9.17118C4.69995 8.31134 4.1149 7.3406 3.62046 6.31328C3.38596 5.82609 3.18834 5.31982 2.98691 4.81686C2.80318 4.35819 3.07377 3.88433 3.35865 3.53875C3.62595 3.21442 3.96991 2.9662 4.34242 2.78328C4.63317 2.64049 4.91998 2.72281 5.13232 2.97472C5.59137 3.51934 6.01302 4.09182 6.35447 4.72312C6.56442 5.11141 6.50682 5.58606 6.1263 5.85032C6.03382 5.91455 5.94954 5.98994 5.86339 6.06249C5.78783 6.12606 5.71672 6.19029 5.66493 6.27637C5.57025 6.43382 5.56573 6.61965 5.6267 6.79089C6.09595 8.10907 6.88688 9.13408 8.18485 9.68616C8.39261 9.77449 8.60115 9.87734 8.84042 9.84882C9.24115 9.80096 9.3709 9.35167 9.6517 9.11692C9.92617 8.88752 10.2769 8.88448 10.5726 9.07573C10.8683 9.26704 11.155 9.47241 11.4399 9.67996C11.7196 9.88368 11.9981 10.083 12.2561 10.3152C12.504 10.5385 12.5895 10.8315 12.4498 11.1346ZM10.122 6.83908C10.0101 6.84113 10.054 6.83889 10.0966 6.83763C9.91623 6.83116 9.81813 6.72263 9.79875 6.54618C9.78461 6.41725 9.77343 6.28661 9.74334 6.16118C9.68405 5.91415 9.5556 5.68521 9.35236 5.53384C9.25639 5.46235 9.14764 5.4102 9.03371 5.37666C8.88899 5.33395 8.7387 5.3457 8.5943 5.30952C8.43749 5.27031 8.35076 5.14046 8.37537 4.99008C8.39778 4.85323 8.52804 4.74642 8.67432 4.75725C9.5886 4.82471 10.242 5.30787 10.3353 6.40814C10.3419 6.48577 10.3496 6.56776 10.3328 6.64203C10.3054 6.76277 10.221 6.82562 10.1357 6.83704C10.1426 6.83717 10.1413 6.83776 10.122 6.83908ZM9.55347 4.32267C9.27293 4.18226 8.96952 4.09499 8.66198 4.04297C8.52759 4.02026 8.39177 4.00646 8.25673 3.98725C8.09308 3.96401 8.00576 3.8574 8.01345 3.69256C8.02068 3.53809 8.13112 3.42698 8.2958 3.43649C8.837 3.46791 9.35972 3.58747 9.84086 3.84789C10.8193 4.37753 11.3782 5.21354 11.5413 6.32985C11.5487 6.38041 11.5605 6.43052 11.5643 6.48128C11.5736 6.60658 11.5793 6.73207 11.5888 6.89731C11.5849 6.92741 11.5828 6.99818 11.5656 7.06485C11.5031 7.30686 11.1441 7.33716 11.0615 7.09291C11.037 7.02042 11.0333 6.93797 11.0332 6.85994C11.0323 6.34939 10.9238 5.83936 10.6719 5.39514C10.413 4.93872 10.0174 4.55491 9.55347 4.32267ZM12.5767 7.77266C12.3876 7.77497 12.3026 7.6133 12.2903 7.44001C12.266 7.097 12.2492 6.75247 12.2029 6.4123C11.9588 4.61663 10.558 3.13104 8.80955 2.81226C8.54644 2.76426 8.27707 2.75166 8.01061 2.72307C7.84211 2.70498 7.62144 2.69455 7.58411 2.48047C7.55279 2.30097 7.701 2.15805 7.86821 2.14888C7.91367 2.14637 7.95939 2.14848 8.00505 2.14868C10.2696 2.21357 8.14326 2.15369 8.01112 2.14901C10.3666 2.21918 12.3005 3.81806 12.7152 6.19907C12.7859 6.60513 12.8111 7.02029 12.8426 7.43242C12.8557 7.60571 12.7597 7.77042 12.5767 7.77266Z" fill="#A2A1A1"/>
</svg>
