<svg width="161" height="57" viewBox="0 0 161 57" fill="none" xmlns="http://www.w3.org/2000/svg">
<path d="M67.7109 37.3633C68.9062 37.3633 69.9531 37.2617 70.8516 37.0586C71.7578 36.8555 72.5898 36.5273 73.3477 36.0742V31.8555L74.8008 31.375L74.9414 30.4961H68.4258L68.2852 31.4688L71.0508 31.9141V35.6055C70.832 35.7305 70.543 35.8438 70.1836 35.9453C69.832 36.0469 69.4492 36.0977 69.0352 36.0977C67.8398 36.0977 66.8047 35.7891 65.9297 35.1719C65.0547 34.5547 64.3867 33.7383 63.9258 32.7227C63.4648 31.707 63.2344 30.6055 63.2344 29.418C63.2344 28.043 63.4414 26.9062 63.8555 26.0078C64.2773 25.1094 64.8398 24.4492 65.543 24.0273C66.2539 23.6055 67.0508 23.3945 67.9336 23.3945C68.8086 23.3945 69.5547 23.5312 70.1719 23.8047C70.7969 24.0703 71.2812 24.3789 71.625 24.7305L72.0469 26.9688L73.0664 27.1445L73.3477 23.3711C72.7773 23.0117 72.0898 22.7344 71.2852 22.5391C70.4805 22.3359 69.5977 22.2344 68.6367 22.2344C67.2773 22.2344 65.9883 22.5586 64.7695 23.207C63.5586 23.8555 62.5781 24.7852 61.8281 25.9961C61.0859 27.207 60.7148 28.6172 60.7148 30.2266C60.7148 31.5938 60.9766 32.8164 61.5 33.8945C62.0234 34.9648 62.8086 35.8125 63.8555 36.4375C64.9023 37.0547 66.1875 37.3633 67.7109 37.3633ZM80.3789 37.3164C81.2852 37.3164 82.1133 37.0859 82.8633 36.625C83.6133 36.1641 84.2031 35.5156 84.6328 34.6797C85.0703 33.8438 85.2891 32.8945 85.2891 31.832C85.2891 30.7617 85.1016 29.8203 84.7266 29.0078C84.3594 28.1875 83.8242 27.5508 83.1211 27.0977C82.4258 26.6445 81.6055 26.418 80.6602 26.418C79.7695 26.418 78.9336 26.6406 78.1523 27.0859C77.3789 27.5312 76.7539 28.1797 76.2773 29.0312C75.8008 29.875 75.5625 30.8672 75.5625 32.0078C75.5625 33.0234 75.75 33.9336 76.125 34.7383C76.5078 35.5352 77.0586 36.1641 77.7773 36.625C78.5039 37.0859 79.3711 37.3164 80.3789 37.3164ZM80.168 27.6484C80.8633 27.6484 81.4375 27.9062 81.8906 28.4219C82.3516 28.9297 82.6836 29.5742 82.8867 30.3555C83.0977 31.1367 83.2031 31.9492 83.2031 32.793C83.2031 33.3711 83.1133 33.918 82.9336 34.4336C82.7539 34.9492 82.4805 35.3711 82.1133 35.6992C81.7461 36.0195 81.3008 36.1797 80.7773 36.1797C80.0508 36.1797 79.4531 35.9414 78.9844 35.4648C78.5156 34.9883 78.1758 34.3711 77.9648 33.6133C77.7539 32.8555 77.6484 32.043 77.6484 31.1758C77.6484 30.5352 77.7383 29.9492 77.918 29.418C78.0977 28.8789 78.375 28.4492 78.75 28.1289C79.1328 27.8086 79.6055 27.6484 80.168 27.6484ZM91.3242 37.3164C92.2305 37.3164 93.0586 37.0859 93.8086 36.625C94.5586 36.1641 95.1484 35.5156 95.5781 34.6797C96.0156 33.8438 96.2344 32.8945 96.2344 31.832C96.2344 30.7617 96.0469 29.8203 95.6719 29.0078C95.3047 28.1875 94.7695 27.5508 94.0664 27.0977C93.3711 26.6445 92.5508 26.418 91.6055 26.418C90.7148 26.418 89.8789 26.6406 89.0977 27.0859C88.3242 27.5312 87.6992 28.1797 87.2227 29.0312C86.7461 29.875 86.5078 30.8672 86.5078 32.0078C86.5078 33.0234 86.6953 33.9336 87.0703 34.7383C87.4531 35.5352 88.0039 36.1641 88.7227 36.625C89.4492 37.0859 90.3164 37.3164 91.3242 37.3164ZM91.1133 27.6484C91.8086 27.6484 92.3828 27.9062 92.8359 28.4219C93.2969 28.9297 93.6289 29.5742 93.832 30.3555C94.043 31.1367 94.1484 31.9492 94.1484 32.793C94.1484 33.3711 94.0586 33.918 93.8789 34.4336C93.6992 34.9492 93.4258 35.3711 93.0586 35.6992C92.6914 36.0195 92.2461 36.1797 91.7227 36.1797C90.9961 36.1797 90.3984 35.9414 89.9297 35.4648C89.4609 34.9883 89.1211 34.3711 88.9102 33.6133C88.6992 32.8555 88.5938 32.043 88.5938 31.1758C88.5938 30.5352 88.6836 29.9492 88.8633 29.418C89.043 28.8789 89.3203 28.4492 89.6953 28.1289C90.0781 27.8086 90.5508 27.6484 91.1133 27.6484ZM101.297 37.2461C102.039 37.2461 102.668 37.082 103.184 36.7539C103.699 36.4258 104.152 35.9961 104.543 35.4648H104.648V35.5469C104.648 36.0547 104.797 36.4688 105.094 36.7891C105.398 37.1094 105.832 37.2695 106.395 37.2695C106.746 37.2695 107.031 37.2539 107.25 37.2227C107.477 37.1992 107.766 37.1406 108.117 37.0469L108.246 36.0742L107.719 35.957C107.383 35.8789 107.133 35.8086 106.969 35.7461C106.812 35.6758 106.684 35.5469 106.582 35.3594C106.488 35.1641 106.441 34.8711 106.441 34.4805V22.1055L106.195 21.8242L102.938 22.1055L102.773 22.9844L104.555 23.6289V25.4688L104.695 26.9688H104.613C104.418 26.8281 104.129 26.707 103.746 26.6055C103.363 26.5039 102.98 26.4531 102.598 26.4531C101.785 26.4531 100.98 26.7109 100.184 27.2266C99.3945 27.7422 98.7461 28.4492 98.2383 29.3477C97.7305 30.2461 97.4766 31.2383 97.4766 32.3242C97.4766 33.3633 97.6445 34.2539 97.9805 34.9961C98.3242 35.7383 98.7852 36.3008 99.3633 36.6836C99.9492 37.0586 100.594 37.2461 101.297 37.2461ZM102.035 27.6016C102.449 27.6016 102.895 27.7461 103.371 28.0352C103.855 28.3242 104.246 28.7109 104.543 29.1953V34.6914C104.316 34.957 103.969 35.2031 103.5 35.4297C103.039 35.6562 102.582 35.7695 102.129 35.7695C101.629 35.7695 101.184 35.6133 100.793 35.3008C100.402 34.9805 100.094 34.5078 99.8672 33.8828C99.6484 33.25 99.5391 32.4844 99.5391 31.5859C99.5391 30.375 99.7383 29.4102 100.137 28.6914C100.535 27.9648 101.168 27.6016 102.035 27.6016ZM114.727 23.9102V35.582L112.77 36.1328L112.676 37H118.242L118.371 36.0625L116.227 35.6641V25.7383L123.996 37.3516L125.789 36.9883V23.7578L127.746 23.3125L127.898 22.4219H122.332L122.191 23.3125L124.359 23.8047V33.7891L116.824 22.4219H112.723L112.594 23.3125L114.727 23.9102ZM132.715 37.3516C133.48 37.3516 134.195 37.2148 134.859 36.9414C135.531 36.6602 136.102 36.2734 136.57 35.7812L136.324 35.1602C135.941 35.3633 135.605 35.5117 135.316 35.6055C135.027 35.6992 134.773 35.7578 134.555 35.7812C134.336 35.7969 134.039 35.8047 133.664 35.8047C132.977 35.8047 132.391 35.6094 131.906 35.2188C131.43 34.8203 131.066 34.3125 130.816 33.6953C130.566 33.0781 130.426 32.4414 130.395 31.7852L136.066 31.7148C136.113 31.5117 136.156 31.2539 136.195 30.9414C136.234 30.6211 136.254 30.3711 136.254 30.1914C136.254 29.3945 136.113 28.7188 135.832 28.1641C135.559 27.6016 135.184 27.1797 134.707 26.8984C134.23 26.6094 133.703 26.4648 133.125 26.4648C132.344 26.4648 131.582 26.6875 130.84 27.1328C130.098 27.5781 129.488 28.2188 129.012 29.0547C128.543 29.8906 128.309 30.8672 128.309 31.9844C128.309 33.1172 128.516 34.0898 128.93 34.9023C129.344 35.7148 129.887 36.3281 130.559 36.7422C131.238 37.1484 131.957 37.3516 132.715 37.3516ZM132.551 27.6133C133.629 27.6133 134.168 28.3398 134.168 29.793C134.168 29.9102 134.16 30.0547 134.145 30.2266C134.137 30.3906 134.121 30.5156 134.098 30.6016L130.418 30.8711C130.457 30.1523 130.582 29.5508 130.793 29.0664C131.012 28.5742 131.277 28.2109 131.59 27.9766C131.902 27.7344 132.223 27.6133 132.551 27.6133ZM138.41 28.1172L141.199 37.3281L142.594 37.1172L144.551 30.1328L146.695 37.3281L148.09 37.1172L150.691 28.0938L151.957 27.6133L152.098 26.7461H147.609L147.492 27.6367L149.25 28.1172L147.539 34.2578L147.293 32.957L145.57 27.2852L143.941 27.4961L142.055 34.1875L141.773 32.7812L140.355 28.0938L141.938 27.6133L142.043 26.7461H137.18L137.062 27.6367L138.41 28.1172ZM156 37.3984C156.602 37.3984 157.18 37.2695 157.734 37.0117C158.297 36.7539 158.75 36.3984 159.094 35.9453C159.438 35.4844 159.609 34.9766 159.609 34.4219C159.609 33.8984 159.473 33.4375 159.199 33.0391C158.926 32.6328 158.594 32.293 158.203 32.0195C157.82 31.7461 157.316 31.4375 156.691 31.0938C156.176 30.8047 155.773 30.5625 155.484 30.3672C155.195 30.1719 154.953 29.9492 154.758 29.6992C154.562 29.4414 154.465 29.1562 154.465 28.8438C154.465 28.4531 154.582 28.1211 154.816 27.8477C155.059 27.5742 155.379 27.4375 155.777 27.4375C156.23 27.4375 156.613 27.6602 156.926 28.1055C157.238 28.543 157.465 29.207 157.605 30.0977C158.113 30.0664 158.512 29.9102 158.801 29.6289C159.098 29.3477 159.246 28.9844 159.246 28.5391C159.246 28.1484 159.125 27.7969 158.883 27.4844C158.648 27.1641 158.312 26.9141 157.875 26.7344C157.438 26.5469 156.938 26.4531 156.375 26.4531C155.633 26.4531 154.996 26.6133 154.465 26.9336C153.941 27.2461 153.547 27.6406 153.281 28.1172C153.016 28.5938 152.883 29.0742 152.883 29.5586C152.883 30.1211 153.023 30.6172 153.305 31.0469C153.594 31.4766 153.938 31.8398 154.336 32.1367C154.742 32.4258 155.266 32.7539 155.906 33.1211C156.375 33.3867 156.738 33.6094 156.996 33.7891C157.262 33.9609 157.48 34.1562 157.652 34.375C157.824 34.5859 157.91 34.8164 157.91 35.0664C157.91 35.4727 157.766 35.7734 157.477 35.9688C157.188 36.1562 156.816 36.25 156.363 36.25C155.879 36.25 155.434 36.0586 155.027 35.6758C154.621 35.2852 154.289 34.707 154.031 33.9414C153.594 33.9727 153.246 34.1445 152.988 34.457C152.73 34.7695 152.602 35.1445 152.602 35.582C152.602 35.8945 152.742 36.1914 153.023 36.4727C153.305 36.7539 153.703 36.9766 154.219 37.1406C154.734 37.3125 155.328 37.3984 156 37.3984Z" fill="#232323"/>
<path d="M0.419998 15.61C0.651898 15.61 0.84 15.422 0.84 15.19C0.84 14.9581 0.651898 14.77 0.419998 14.77C0.187998 14.77 0 14.9581 0 15.19C0 15.422 0.187998 15.61 0.419998 15.61Z" fill="#414042"/>
<path d="M9.71981 15.5402C9.95181 15.5402 10.1398 15.3522 10.1398 15.1202C10.1398 14.8882 9.95181 14.7002 9.71981 14.7002C9.48791 14.7002 9.2998 14.8882 9.2998 15.1202C9.2998 15.3522 9.48791 15.5402 9.71981 15.5402Z" fill="#414042"/>
<path d="M5.0699 18.2804C5.3019 18.2804 5.4899 18.0923 5.4899 17.8604C5.4899 17.6284 5.3019 17.4404 5.0699 17.4404C4.838 17.4404 4.6499 17.6284 4.6499 17.8604C4.6499 18.0923 4.838 18.2804 5.0699 18.2804Z" fill="#414042"/>
<path d="M0.419998 21.0304C0.651898 21.0304 0.84 20.8423 0.84 20.6104C0.84 20.3784 0.651898 20.1904 0.419998 20.1904C0.187998 20.1904 0 20.3784 0 20.6104C0 20.8423 0.187998 21.0304 0.419998 21.0304Z" fill="#414042"/>
<path d="M23.6698 13.1604C24.1503 13.1604 24.5398 12.7708 24.5398 12.2904C24.5398 11.8099 24.1503 11.4204 23.6698 11.4204C23.1894 11.4204 22.7998 11.8099 22.7998 12.2904C22.7998 12.7708 23.1894 13.1604 23.6698 13.1604Z" fill="#414042"/>
<path d="M19.0199 15.9104C19.5004 15.9104 19.8899 15.5208 19.8899 15.0404C19.8899 14.5599 19.5004 14.1704 19.0199 14.1704C18.5395 14.1704 18.1499 14.5599 18.1499 15.0404C18.1499 15.5208 18.5395 15.9104 19.0199 15.9104Z" fill="#414042"/>
<path d="M14.37 18.6604C14.8505 18.6604 15.24 18.2708 15.24 17.7904C15.24 17.3099 14.8505 16.9204 14.37 16.9204C13.8895 16.9204 13.5 17.3099 13.5 17.7904C13.5 18.2708 13.8895 18.6604 14.37 18.6604Z" fill="#414042"/>
<path d="M9.7201 21.4104C10.2006 21.4104 10.5901 21.0208 10.5901 20.5404C10.5901 20.0599 10.2006 19.6704 9.7201 19.6704C9.2396 19.6704 8.8501 20.0599 8.8501 20.5404C8.8501 21.0208 9.2396 21.4104 9.7201 21.4104Z" fill="#414042"/>
<path d="M5.0702 24.1502C5.5507 24.1502 5.9402 23.7606 5.9402 23.2802C5.9402 22.7997 5.5507 22.4102 5.0702 22.4102C4.5897 22.4102 4.2002 22.7997 4.2002 23.2802C4.2002 23.7606 4.5897 24.1502 5.0702 24.1502Z" fill="#414042"/>
<path d="M0.419998 26.4499C0.651898 26.4499 0.84 26.2619 0.84 26.0299C0.84 25.7979 0.651898 25.6099 0.419998 25.6099C0.187998 25.6099 0 25.7979 0 26.0299C0 26.2619 0.187998 26.4499 0.419998 26.4499Z" fill="#414042"/>
<path d="M23.6702 19.4502C24.6311 19.4502 25.4102 18.6712 25.4102 17.7102C25.4102 16.7492 24.6311 15.9702 23.6702 15.9702C22.7092 15.9702 21.9302 16.7492 21.9302 17.7102C21.9302 18.6712 22.7092 19.4502 23.6702 19.4502Z" fill="#414042"/>
<path d="M19.0203 22.2002C19.9812 22.2002 20.7603 21.4212 20.7603 20.4602C20.7603 19.4992 19.9812 18.7202 19.0203 18.7202C18.0593 18.7202 17.2803 19.4992 17.2803 20.4602C17.2803 21.4212 18.0593 22.2002 19.0203 22.2002Z" fill="#414042"/>
<path d="M14.3699 24.9502C15.3309 24.9502 16.1099 24.1712 16.1099 23.2102C16.1099 22.2492 15.3309 21.4702 14.3699 21.4702C13.409 21.4702 12.6299 22.2492 12.6299 23.2102C12.6299 24.1712 13.409 24.9502 14.3699 24.9502Z" fill="#414042"/>
<path d="M9.71998 27.69C10.6809 27.69 11.46 26.911 11.46 25.95C11.46 24.989 10.6809 24.21 9.71998 24.21C8.75898 24.21 7.97998 24.989 7.97998 25.95C7.97998 26.911 8.75898 27.69 9.71998 27.69Z" fill="#414042"/>
<path d="M5.0702 29.5701C5.5507 29.5701 5.9402 29.1806 5.9402 28.7001C5.9402 28.2196 5.5507 27.8301 5.0702 27.8301C4.5897 27.8301 4.2002 28.2196 4.2002 28.7001C4.2002 29.1806 4.5897 29.5701 5.0702 29.5701Z" fill="#414042"/>
<path d="M0.419998 31.8698C0.651898 31.8698 0.84 31.6818 0.84 31.4498C0.84 31.2179 0.651898 31.0298 0.419998 31.0298C0.187998 31.0298 0 31.2179 0 31.4498C0 31.6818 0.187998 31.8698 0.419998 31.8698Z" fill="#414042"/>
<path d="M23.6702 24.8701C24.6311 24.8701 25.4102 24.0911 25.4102 23.1301C25.4102 22.1692 24.6311 21.3901 23.6702 21.3901C22.7092 21.3901 21.9302 22.1692 21.9302 23.1301C21.9302 24.0911 22.7092 24.8701 23.6702 24.8701Z" fill="#414042"/>
<path d="M19.0203 27.6201C19.9812 27.6201 20.7603 26.8411 20.7603 25.8801C20.7603 24.9192 19.9812 24.1401 19.0203 24.1401C18.0593 24.1401 17.2803 24.9192 17.2803 25.8801C17.2803 26.8411 18.0593 27.6201 19.0203 27.6201Z" fill="#414042"/>
<path d="M14.3699 30.3599C15.3309 30.3599 16.1099 29.5809 16.1099 28.6199C16.1099 27.659 15.3309 26.8799 14.3699 26.8799C13.409 26.8799 12.6299 27.659 12.6299 28.6199C12.6299 29.5809 13.409 30.3599 14.3699 30.3599Z" fill="#414042"/>
<path d="M9.71998 33.1099C10.6809 33.1099 11.46 32.3309 11.46 31.3699C11.46 30.409 10.6809 29.6299 9.71998 29.6299C8.75898 29.6299 7.97998 30.409 7.97998 31.3699C7.97998 32.3309 8.75898 33.1099 9.71998 33.1099Z" fill="#414042"/>
<path d="M5.0702 34.99C5.5507 34.99 5.9402 34.6005 5.9402 34.12C5.9402 33.6395 5.5507 33.25 5.0702 33.25C4.5897 33.25 4.2002 33.6395 4.2002 34.12C4.2002 34.6005 4.5897 34.99 5.0702 34.99Z" fill="#414042"/>
<path d="M0.419998 37.2902C0.651898 37.2902 0.84 37.1022 0.84 36.8702C0.84 36.6382 0.651898 36.4502 0.419998 36.4502C0.187998 36.4502 0 36.6382 0 36.8702C0 37.1022 0.187998 37.2902 0.419998 37.2902Z" fill="#414042"/>
<path d="M23.6698 29.4202C24.1503 29.4202 24.5398 29.0307 24.5398 28.5502C24.5398 28.0697 24.1503 27.6802 23.6698 27.6802C23.1894 27.6802 22.7998 28.0697 22.7998 28.5502C22.7998 29.0307 23.1894 29.4202 23.6698 29.4202Z" fill="#414042"/>
<path d="M19.0199 32.1604C19.5004 32.1604 19.8899 31.7708 19.8899 31.2904C19.8899 30.8099 19.5004 30.4204 19.0199 30.4204C18.5395 30.4204 18.1499 30.8099 18.1499 31.2904C18.1499 31.7708 18.5395 32.1604 19.0199 32.1604Z" fill="#414042"/>
<path d="M14.37 34.9104C14.8505 34.9104 15.24 34.5208 15.24 34.0404C15.24 33.5599 14.8505 33.1704 14.37 33.1704C13.8895 33.1704 13.5 33.5599 13.5 34.0404C13.5 34.5208 13.8895 34.9104 14.37 34.9104Z" fill="#414042"/>
<path d="M9.7201 37.6604C10.2006 37.6604 10.5901 37.2708 10.5901 36.7904C10.5901 36.3099 10.2006 35.9204 9.7201 35.9204C9.2396 35.9204 8.8501 36.3099 8.8501 36.7904C8.8501 37.2708 9.2396 37.6604 9.7201 37.6604Z" fill="#414042"/>
<path d="M5.0699 39.9601C5.3019 39.9601 5.4899 39.7721 5.4899 39.5401C5.4899 39.3082 5.3019 39.1201 5.0699 39.1201C4.838 39.1201 4.6499 39.3082 4.6499 39.5401C4.6499 39.7721 4.838 39.9601 5.0699 39.9601Z" fill="#414042"/>
<path d="M0.419998 42.7101C0.651898 42.7101 0.84 42.5221 0.84 42.2901C0.84 42.0582 0.651898 41.8701 0.419998 41.8701C0.187998 41.8701 0 42.0582 0 42.2901C0 42.5221 0.187998 42.7101 0.419998 42.7101Z" fill="#414042"/>
<path d="M23.67 34.38C23.9019 34.38 24.09 34.192 24.09 33.96C24.09 33.7281 23.9019 33.54 23.67 33.54C23.438 33.54 23.25 33.7281 23.25 33.96C23.25 34.192 23.438 34.38 23.67 34.38Z" fill="#414042"/>
<path d="M19.0201 37.13C19.2521 37.13 19.4401 36.942 19.4401 36.71C19.4401 36.4781 19.2521 36.29 19.0201 36.29C18.7882 36.29 18.6001 36.4781 18.6001 36.71C18.6001 36.942 18.7882 37.13 19.0201 37.13Z" fill="#414042"/>
<path d="M14.3702 39.88C14.6022 39.88 14.7902 39.692 14.7902 39.46C14.7902 39.2281 14.6022 39.04 14.3702 39.04C14.1382 39.04 13.9502 39.2281 13.9502 39.46C13.9502 39.692 14.1382 39.88 14.3702 39.88Z" fill="#414042"/>
<path d="M9.71981 42.63C9.95181 42.63 10.1398 42.442 10.1398 42.21C10.1398 41.9781 9.95181 41.79 9.71981 41.79C9.48791 41.79 9.2998 41.9781 9.2998 42.21C9.2998 42.442 9.48791 42.63 9.71981 42.63Z" fill="#414042"/>
<path d="M5.0699 45.38C5.3019 45.38 5.4899 45.192 5.4899 44.96C5.4899 44.7281 5.3019 44.54 5.0699 44.54C4.838 44.54 4.6499 44.7281 4.6499 44.96C4.6499 45.192 4.838 45.38 5.0699 45.38Z" fill="#414042"/>
<path d="M23.67 39.8C23.9019 39.8 24.09 39.612 24.09 39.38C24.09 39.148 23.9019 38.96 23.67 38.96C23.438 38.96 23.25 39.148 23.25 39.38C23.25 39.612 23.438 39.8 23.67 39.8Z" fill="#414042"/>
<path d="M19.0201 42.55C19.2521 42.55 19.4401 42.362 19.4401 42.13C19.4401 41.898 19.2521 41.71 19.0201 41.71C18.7882 41.71 18.6001 41.898 18.6001 42.13C18.6001 42.362 18.7882 42.55 19.0201 42.55Z" fill="#414042"/>
<path d="M14.3702 45.3C14.6022 45.3 14.7902 45.112 14.7902 44.88C14.7902 44.648 14.6022 44.46 14.3702 44.46C14.1382 44.46 13.9502 44.648 13.9502 44.88C13.9502 45.112 14.1382 45.3 14.3702 45.3Z" fill="#414042"/>
<path d="M9.71981 48.05C9.95181 48.05 10.1398 47.862 10.1398 47.63C10.1398 47.398 9.95181 47.21 9.71981 47.21C9.48791 47.21 9.2998 47.398 9.2998 47.63C9.2998 47.862 9.48791 48.05 9.71981 48.05Z" fill="#414042"/>
<path d="M23.67 45.2199C23.9019 45.2199 24.09 45.0319 24.09 44.7999C24.09 44.568 23.9019 44.3799 23.67 44.3799C23.438 44.3799 23.25 44.568 23.25 44.7999C23.25 45.0319 23.438 45.2199 23.67 45.2199Z" fill="#414042"/>
<path d="M19.0201 47.9699C19.2521 47.9699 19.4401 47.7819 19.4401 47.5499C19.4401 47.318 19.2521 47.1299 19.0201 47.1299C18.7882 47.1299 18.6001 47.318 18.6001 47.5499C18.6001 47.7819 18.7882 47.9699 19.0201 47.9699Z" fill="#414042"/>
<path d="M14.3702 50.7199C14.6022 50.7199 14.7902 50.5319 14.7902 50.2999C14.7902 50.068 14.6022 49.8799 14.3702 49.8799C14.1382 49.8799 13.9502 50.068 13.9502 50.2999C13.9502 50.5319 14.1382 50.7199 14.3702 50.7199Z" fill="#414042"/>
<path d="M23.67 50.6398C23.9019 50.6398 24.09 50.4518 24.09 50.2198C24.09 49.9879 23.9019 49.7998 23.67 49.7998C23.438 49.7998 23.25 49.9879 23.25 50.2198C23.25 50.4518 23.438 50.6398 23.67 50.6398Z" fill="#414042"/>
<path d="M19.0201 53.3898C19.2521 53.3898 19.4401 53.2018 19.4401 52.9698C19.4401 52.7379 19.2521 52.5498 19.0201 52.5498C18.7882 52.5498 18.6001 52.7379 18.6001 52.9698C18.6001 53.2018 18.7882 53.3898 19.0201 53.3898Z" fill="#414042"/>
<path d="M23.67 56.0602C23.9019 56.0602 24.09 55.8722 24.09 55.6402C24.09 55.4083 23.9019 55.2202 23.67 55.2202C23.438 55.2202 23.25 55.4083 23.25 55.6402C23.25 55.8722 23.438 56.0602 23.67 56.0602Z" fill="#414042"/>
<path d="M46.86 15.61C47.0919 15.61 47.28 15.422 47.28 15.19C47.28 14.9581 47.0919 14.77 46.86 14.77C46.628 14.77 46.4399 14.9581 46.4399 15.19C46.4399 15.422 46.628 15.61 46.86 15.61Z" fill="#414042"/>
<path d="M37.5499 15.5402C37.7819 15.5402 37.9699 15.3522 37.9699 15.1202C37.9699 14.8882 37.7819 14.7002 37.5499 14.7002C37.318 14.7002 37.1299 14.8882 37.1299 15.1202C37.1299 15.3522 37.318 15.5402 37.5499 15.5402Z" fill="#414042"/>
<path d="M42.2101 18.2804C42.442 18.2804 42.63 18.0923 42.63 17.8604C42.63 17.6284 42.442 17.4404 42.2101 17.4404C41.9781 17.4404 41.79 17.6284 41.79 17.8604C41.79 18.0923 41.9781 18.2804 42.2101 18.2804Z" fill="#414042"/>
<path d="M46.86 21.0304C47.0919 21.0304 47.28 20.8423 47.28 20.6104C47.28 20.3784 47.0919 20.1904 46.86 20.1904C46.628 20.1904 46.4399 20.3784 46.4399 20.6104C46.4399 20.8423 46.628 21.0304 46.86 21.0304Z" fill="#414042"/>
<path d="M23.6 13.1604C24.0805 13.1604 24.47 12.7708 24.47 12.2904C24.47 11.8099 24.0805 11.4204 23.6 11.4204C23.1195 11.4204 22.73 11.8099 22.73 12.2904C22.73 12.7708 23.1195 13.1604 23.6 13.1604Z" fill="#414042"/>
<path d="M28.25 15.9104C28.7304 15.9104 29.1199 15.5208 29.1199 15.0404C29.1199 14.5599 28.7304 14.1704 28.25 14.1704C27.7695 14.1704 27.3799 14.5599 27.3799 15.0404C27.3799 15.5208 27.7695 15.9104 28.25 15.9104Z" fill="#414042"/>
<path d="M32.9003 18.6604C33.3808 18.6604 33.7703 18.2708 33.7703 17.7904C33.7703 17.3099 33.3808 16.9204 32.9003 16.9204C32.4198 16.9204 32.0303 17.3099 32.0303 17.7904C32.0303 18.2708 32.4198 18.6604 32.9003 18.6604Z" fill="#414042"/>
<path d="M37.5502 21.4104C38.0307 21.4104 38.4202 21.0208 38.4202 20.5404C38.4202 20.0599 38.0307 19.6704 37.5502 19.6704C37.0697 19.6704 36.6802 20.0599 36.6802 20.5404C36.6802 21.0208 37.0697 21.4104 37.5502 21.4104Z" fill="#414042"/>
<path d="M42.2103 24.1502C42.6908 24.1502 43.0803 23.7606 43.0803 23.2802C43.0803 22.7997 42.6908 22.4102 42.2103 22.4102C41.7298 22.4102 41.3403 22.7997 41.3403 23.2802C41.3403 23.7606 41.7298 24.1502 42.2103 24.1502Z" fill="#414042"/>
<path d="M46.86 26.4499C47.0919 26.4499 47.28 26.2619 47.28 26.0299C47.28 25.7979 47.0919 25.6099 46.86 25.6099C46.628 25.6099 46.4399 25.7979 46.4399 26.0299C46.4399 26.2619 46.628 26.4499 46.86 26.4499Z" fill="#414042"/>
<path d="M23.6004 19.4502C24.5614 19.4502 25.3404 18.6712 25.3404 17.7102C25.3404 16.7492 24.5614 15.9702 23.6004 15.9702C22.6394 15.9702 21.8604 16.7492 21.8604 17.7102C21.8604 18.6712 22.6394 19.4502 23.6004 19.4502Z" fill="#414042"/>
<path d="M28.2503 22.2002C29.2113 22.2002 29.9903 21.4212 29.9903 20.4602C29.9903 19.4992 29.2113 18.7202 28.2503 18.7202C27.2893 18.7202 26.5103 19.4992 26.5103 20.4602C26.5103 21.4212 27.2893 22.2002 28.2503 22.2002Z" fill="#414042"/>
<path d="M32.9002 24.9502C33.8612 24.9502 34.6402 24.1712 34.6402 23.2102C34.6402 22.2492 33.8612 21.4702 32.9002 21.4702C31.9392 21.4702 31.1602 22.2492 31.1602 23.2102C31.1602 24.1712 31.9392 24.9502 32.9002 24.9502Z" fill="#414042"/>
<path d="M37.55 27.69C38.511 27.69 39.29 26.911 39.29 25.95C39.29 24.989 38.511 24.21 37.55 24.21C36.5891 24.21 35.8101 24.989 35.8101 25.95C35.8101 26.911 36.5891 27.69 37.55 27.69Z" fill="#414042"/>
<path d="M42.2103 29.5701C42.6908 29.5701 43.0803 29.1806 43.0803 28.7001C43.0803 28.2196 42.6908 27.8301 42.2103 27.8301C41.7298 27.8301 41.3403 28.2196 41.3403 28.7001C41.3403 29.1806 41.7298 29.5701 42.2103 29.5701Z" fill="#414042"/>
<path d="M46.86 31.8698C47.0919 31.8698 47.28 31.6818 47.28 31.4498C47.28 31.2179 47.0919 31.0298 46.86 31.0298C46.628 31.0298 46.4399 31.2179 46.4399 31.4498C46.4399 31.6818 46.628 31.8698 46.86 31.8698Z" fill="#414042"/>
<path d="M23.6004 24.8701C24.5614 24.8701 25.3404 24.0911 25.3404 23.1301C25.3404 22.1692 24.5614 21.3901 23.6004 21.3901C22.6394 21.3901 21.8604 22.1692 21.8604 23.1301C21.8604 24.0911 22.6394 24.8701 23.6004 24.8701Z" fill="#414042"/>
<path d="M28.2503 27.6201C29.2113 27.6201 29.9903 26.8411 29.9903 25.8801C29.9903 24.9192 29.2113 24.1401 28.2503 24.1401C27.2893 24.1401 26.5103 24.9192 26.5103 25.8801C26.5103 26.8411 27.2893 27.6201 28.2503 27.6201Z" fill="#414042"/>
<path d="M32.9002 30.3599C33.8612 30.3599 34.6402 29.5809 34.6402 28.6199C34.6402 27.659 33.8612 26.8799 32.9002 26.8799C31.9392 26.8799 31.1602 27.659 31.1602 28.6199C31.1602 29.5809 31.9392 30.3599 32.9002 30.3599Z" fill="#414042"/>
<path d="M37.55 33.1099C38.511 33.1099 39.29 32.3309 39.29 31.3699C39.29 30.409 38.511 29.6299 37.55 29.6299C36.5891 29.6299 35.8101 30.409 35.8101 31.3699C35.8101 32.3309 36.5891 33.1099 37.55 33.1099Z" fill="#414042"/>
<path d="M42.2103 34.99C42.6908 34.99 43.0803 34.6005 43.0803 34.12C43.0803 33.6395 42.6908 33.25 42.2103 33.25C41.7298 33.25 41.3403 33.6395 41.3403 34.12C41.3403 34.6005 41.7298 34.99 42.2103 34.99Z" fill="#414042"/>
<path d="M46.86 37.2902C47.0919 37.2902 47.28 37.1022 47.28 36.8702C47.28 36.6382 47.0919 36.4502 46.86 36.4502C46.628 36.4502 46.4399 36.6382 46.4399 36.8702C46.4399 37.1022 46.628 37.2902 46.86 37.2902Z" fill="#414042"/>
<path d="M23.6 29.4202C24.0805 29.4202 24.47 29.0307 24.47 28.5502C24.47 28.0697 24.0805 27.6802 23.6 27.6802C23.1195 27.6802 22.73 28.0697 22.73 28.5502C22.73 29.0307 23.1195 29.4202 23.6 29.4202Z" fill="#414042"/>
<path d="M28.25 32.1604C28.7304 32.1604 29.1199 31.7708 29.1199 31.2904C29.1199 30.8099 28.7304 30.4204 28.25 30.4204C27.7695 30.4204 27.3799 30.8099 27.3799 31.2904C27.3799 31.7708 27.7695 32.1604 28.25 32.1604Z" fill="#414042"/>
<path d="M32.9003 34.9104C33.3808 34.9104 33.7703 34.5208 33.7703 34.0404C33.7703 33.5599 33.3808 33.1704 32.9003 33.1704C32.4198 33.1704 32.0303 33.5599 32.0303 34.0404C32.0303 34.5208 32.4198 34.9104 32.9003 34.9104Z" fill="#414042"/>
<path d="M37.5502 37.6604C38.0307 37.6604 38.4202 37.2708 38.4202 36.7904C38.4202 36.3099 38.0307 35.9204 37.5502 35.9204C37.0697 35.9204 36.6802 36.3099 36.6802 36.7904C36.6802 37.2708 37.0697 37.6604 37.5502 37.6604Z" fill="#414042"/>
<path d="M42.2101 39.9601C42.442 39.9601 42.63 39.7721 42.63 39.5401C42.63 39.3082 42.442 39.1201 42.2101 39.1201C41.9781 39.1201 41.79 39.3082 41.79 39.5401C41.79 39.7721 41.9781 39.9601 42.2101 39.9601Z" fill="#414042"/>
<path d="M46.86 42.7101C47.0919 42.7101 47.28 42.5221 47.28 42.2901C47.28 42.0582 47.0919 41.8701 46.86 41.8701C46.628 41.8701 46.4399 42.0582 46.4399 42.2901C46.4399 42.5221 46.628 42.7101 46.86 42.7101Z" fill="#414042"/>
<path d="M23.6002 34.38C23.8321 34.38 24.0202 34.192 24.0202 33.96C24.0202 33.7281 23.8321 33.54 23.6002 33.54C23.3682 33.54 23.1802 33.7281 23.1802 33.96C23.1802 34.192 23.3682 34.38 23.6002 34.38Z" fill="#414042"/>
<path d="M28.2501 37.13C28.4821 37.13 28.6701 36.942 28.6701 36.71C28.6701 36.4781 28.4821 36.29 28.2501 36.29C28.0181 36.29 27.8301 36.4781 27.8301 36.71C27.8301 36.942 28.0181 37.13 28.2501 37.13Z" fill="#414042"/>
<path d="M32.9 39.88C33.132 39.88 33.32 39.692 33.32 39.46C33.32 39.2281 33.132 39.04 32.9 39.04C32.668 39.04 32.48 39.2281 32.48 39.46C32.48 39.692 32.668 39.88 32.9 39.88Z" fill="#414042"/>
<path d="M37.5499 42.63C37.7819 42.63 37.9699 42.442 37.9699 42.21C37.9699 41.9781 37.7819 41.79 37.5499 41.79C37.318 41.79 37.1299 41.9781 37.1299 42.21C37.1299 42.442 37.318 42.63 37.5499 42.63Z" fill="#414042"/>
<path d="M42.2101 45.38C42.442 45.38 42.63 45.192 42.63 44.96C42.63 44.7281 42.442 44.54 42.2101 44.54C41.9781 44.54 41.79 44.7281 41.79 44.96C41.79 45.192 41.9781 45.38 42.2101 45.38Z" fill="#414042"/>
<path d="M23.6002 39.8C23.8321 39.8 24.0202 39.612 24.0202 39.38C24.0202 39.148 23.8321 38.96 23.6002 38.96C23.3682 38.96 23.1802 39.148 23.1802 39.38C23.1802 39.612 23.3682 39.8 23.6002 39.8Z" fill="#414042"/>
<path d="M28.2501 42.55C28.4821 42.55 28.6701 42.362 28.6701 42.13C28.6701 41.898 28.4821 41.71 28.2501 41.71C28.0181 41.71 27.8301 41.898 27.8301 42.13C27.8301 42.362 28.0181 42.55 28.2501 42.55Z" fill="#414042"/>
<path d="M32.9 45.3C33.132 45.3 33.32 45.112 33.32 44.88C33.32 44.648 33.132 44.46 32.9 44.46C32.668 44.46 32.48 44.648 32.48 44.88C32.48 45.112 32.668 45.3 32.9 45.3Z" fill="#414042"/>
<path d="M37.5499 48.05C37.7819 48.05 37.9699 47.862 37.9699 47.63C37.9699 47.398 37.7819 47.21 37.5499 47.21C37.318 47.21 37.1299 47.398 37.1299 47.63C37.1299 47.862 37.318 48.05 37.5499 48.05Z" fill="#414042"/>
<path d="M23.6002 45.2199C23.8321 45.2199 24.0202 45.0319 24.0202 44.7999C24.0202 44.568 23.8321 44.3799 23.6002 44.3799C23.3682 44.3799 23.1802 44.568 23.1802 44.7999C23.1802 45.0319 23.3682 45.2199 23.6002 45.2199Z" fill="#414042"/>
<path d="M28.2501 47.9699C28.4821 47.9699 28.6701 47.7819 28.6701 47.5499C28.6701 47.318 28.4821 47.1299 28.2501 47.1299C28.0181 47.1299 27.8301 47.318 27.8301 47.5499C27.8301 47.7819 28.0181 47.9699 28.2501 47.9699Z" fill="#414042"/>
<path d="M32.9 50.7199C33.132 50.7199 33.32 50.5319 33.32 50.2999C33.32 50.068 33.132 49.8799 32.9 49.8799C32.668 49.8799 32.48 50.068 32.48 50.2999C32.48 50.5319 32.668 50.7199 32.9 50.7199Z" fill="#414042"/>
<path d="M23.6002 50.6398C23.8321 50.6398 24.0202 50.4518 24.0202 50.2198C24.0202 49.9879 23.8321 49.7998 23.6002 49.7998C23.3682 49.7998 23.1802 49.9879 23.1802 50.2198C23.1802 50.4518 23.3682 50.6398 23.6002 50.6398Z" fill="#414042"/>
<path d="M28.2501 53.3898C28.4821 53.3898 28.6701 53.2018 28.6701 52.9698C28.6701 52.7379 28.4821 52.5498 28.2501 52.5498C28.0181 52.5498 27.8301 52.7379 27.8301 52.9698C27.8301 53.2018 28.0181 53.3898 28.2501 53.3898Z" fill="#414042"/>
<path d="M23.6002 56.0602C23.8321 56.0602 24.0202 55.8722 24.0202 55.6402C24.0202 55.4083 23.8321 55.2202 23.6002 55.2202C23.3682 55.2202 23.1802 55.4083 23.1802 55.6402C23.1802 55.8722 23.3682 56.0602 23.6002 56.0602Z" fill="#414042"/>
<path d="M23.1202 0.84C23.3521 0.84 23.5402 0.651998 23.5402 0.419998C23.5402 0.188098 23.3521 0 23.1202 0C22.8882 0 22.7002 0.188098 22.7002 0.419998C22.7002 0.651998 22.8882 0.84 23.1202 0.84Z" fill="#414042"/>
<path d="M18.4699 3.59C18.7018 3.59 18.8898 3.402 18.8898 3.17C18.8898 2.9381 18.7018 2.75 18.4699 2.75C18.2379 2.75 18.0498 2.9381 18.0498 3.17C18.0498 3.402 18.2379 3.59 18.4699 3.59Z" fill="#414042"/>
<path d="M13.8199 6.34C14.0519 6.34 14.2399 6.152 14.2399 5.92C14.2399 5.6881 14.0519 5.5 13.8199 5.5C13.588 5.5 13.3999 5.6881 13.3999 5.92C13.3999 6.152 13.588 6.34 13.8199 6.34Z" fill="#414042"/>
<path d="M9.17 9.09C9.4019 9.09 9.59 8.902 9.59 8.67C9.59 8.4381 9.4019 8.25 9.17 8.25C8.938 8.25 8.75 8.4381 8.75 8.67C8.75 8.902 8.938 9.09 9.17 9.09Z" fill="#414042"/>
<path d="M4.5201 11.84C4.752 11.84 4.9401 11.652 4.9401 11.42C4.9401 11.1881 4.752 11 4.5201 11C4.2881 11 4.1001 11.1881 4.1001 11.42C4.1001 11.652 4.2881 11.84 4.5201 11.84Z" fill="#414042"/>
<path d="M23.1202 6.26041C23.3521 6.26041 23.5402 6.07231 23.5402 5.84041C23.5402 5.60841 23.3521 5.42041 23.1202 5.42041C22.8882 5.42041 22.7002 5.60841 22.7002 5.84041C22.7002 6.07231 22.8882 6.26041 23.1202 6.26041Z" fill="#414042"/>
<path d="M18.4699 9.01041C18.7018 9.01041 18.8898 8.82231 18.8898 8.59041C18.8898 8.35841 18.7018 8.17041 18.4699 8.17041C18.2379 8.17041 18.0498 8.35841 18.0498 8.59041C18.0498 8.82231 18.2379 9.01041 18.4699 9.01041Z" fill="#414042"/>
<path d="M13.8199 11.7604C14.0519 11.7604 14.2399 11.5723 14.2399 11.3404C14.2399 11.1084 14.0519 10.9204 13.8199 10.9204C13.588 10.9204 13.3999 11.1084 13.3999 11.3404C13.3999 11.5723 13.588 11.7604 13.8199 11.7604Z" fill="#414042"/>
<path d="M23.0499 0.84C23.2819 0.84 23.4699 0.651998 23.4699 0.419998C23.4699 0.188098 23.2819 0 23.0499 0C22.818 0 22.6299 0.188098 22.6299 0.419998C22.6299 0.651998 22.818 0.84 23.0499 0.84Z" fill="#414042"/>
<path d="M27.6998 3.59C27.9318 3.59 28.1198 3.402 28.1198 3.17C28.1198 2.9381 27.9318 2.75 27.6998 2.75C27.4679 2.75 27.2798 2.9381 27.2798 3.17C27.2798 3.402 27.4679 3.59 27.6998 3.59Z" fill="#414042"/>
<path d="M32.3502 6.34C32.5821 6.34 32.7702 6.152 32.7702 5.92C32.7702 5.6881 32.5821 5.5 32.3502 5.5C32.1182 5.5 31.9302 5.6881 31.9302 5.92C31.9302 6.152 32.1182 6.34 32.3502 6.34Z" fill="#414042"/>
<path d="M37.0001 9.09C37.2321 9.09 37.4201 8.902 37.4201 8.67C37.4201 8.4381 37.2321 8.25 37.0001 8.25C36.7681 8.25 36.5801 8.4381 36.5801 8.67C36.5801 8.902 36.7681 9.09 37.0001 9.09Z" fill="#414042"/>
<path d="M41.6602 11.84C41.8922 11.84 42.0802 11.652 42.0802 11.42C42.0802 11.1881 41.8922 11 41.6602 11C41.4282 11 41.2402 11.1881 41.2402 11.42C41.2402 11.652 41.4282 11.84 41.6602 11.84Z" fill="#414042"/>
<path d="M23.0499 6.26041C23.2819 6.26041 23.4699 6.07231 23.4699 5.84041C23.4699 5.60841 23.2819 5.42041 23.0499 5.42041C22.818 5.42041 22.6299 5.60841 22.6299 5.84041C22.6299 6.07231 22.818 6.26041 23.0499 6.26041Z" fill="#414042"/>
<path d="M27.6998 9.01041C27.9318 9.01041 28.1198 8.82231 28.1198 8.59041C28.1198 8.35841 27.9318 8.17041 27.6998 8.17041C27.4679 8.17041 27.2798 8.35841 27.2798 8.59041C27.2798 8.82231 27.4679 9.01041 27.6998 9.01041Z" fill="#414042"/>
<path d="M32.3502 11.7604C32.5821 11.7604 32.7702 11.5723 32.7702 11.3404C32.7702 11.1084 32.5821 10.9204 32.3502 10.9204C32.1182 10.9204 31.9302 11.1084 31.9302 11.3404C31.9302 11.5723 32.1182 11.7604 32.3502 11.7604Z" fill="#414042"/>
</svg>
