<svg width="252" height="33" viewBox="0 0 252 33" fill="none" xmlns="http://www.w3.org/2000/svg">
<g clip-path="url(#clip0)">
<path d="M18.9131 3.38163C18.9131 0.689167 16.3696 -0.0893779 14.25 0.00794007V0.429379C15.5217 0.46003 16.5 0.883533 16.5 1.72558C16.5 2.31086 16.0763 3.0556 14.8043 3.0556C13.7934 3.0556 11.8369 2.47167 10.2717 1.95265C8.54336 1.36874 6.91288 0.817259 5.54329 0.817259C2.86933 0.817259 0.847567 2.79745 0.847567 5.22901C0.847567 7.20919 2.34759 7.9215 2.96717 8.1824L3.16283 7.85801C2.77152 7.59696 2.38018 7.30652 2.38018 6.52798C2.38018 5.94269 2.90194 5.00195 4.27153 5.00195C5.51068 5.00195 7.14117 5.55341 9.29338 6.16976C11.1521 6.68879 13.2065 7.17537 14.3152 7.30651V11.5223L12.2282 13.2429V13.4054L14.3152 15.222V21.0286C13.2391 21.645 11.9999 21.8071 10.9238 21.8071C8.93467 21.8071 7.04332 21.2881 5.54329 19.6337L11.1521 16.9412V7.63117L4.27153 10.6805C4.98893 8.86387 6.42374 7.66361 7.89115 6.78775L7.7936 6.46336C3.71744 7.5663 0 11.2954 0 15.9032C0 21.4179 4.50005 25.5039 9.61971 25.5039C15.1633 25.5039 18.6851 21.1908 18.6199 16.6169L18.2938 16.5862C17.4785 18.3379 16.3046 19.9923 14.772 20.8682V15.2238L16.9894 13.472L16.9586 13.2774L14.7738 11.5243V7.30857C16.7956 7.30857 18.9152 5.94613 18.9152 3.38342L18.9131 3.38163ZM7.01071 18.4659L5.34763 19.2769C4.40196 18.0442 3.78241 16.3898 3.78241 14.0866C3.78241 13.1458 3.87996 11.9766 4.1737 11.167L7.04331 9.9019L7.01071 18.4659ZM21.5218 21.4828L19.6957 22.8465L19.9242 23.1045L20.8047 22.4882L23.8699 25.2766L27.9787 22.5517L27.7831 22.26L26.707 22.9412L25.37 21.6126V12.27L26.4787 11.4577L28.8266 13.3392V21.6126C28.8266 26.7691 27.6852 27.6125 25.3374 28.4572V28.8154C29.2179 28.9763 32.7071 27.6787 32.7071 21.0624V12.1727L33.9462 11.1981L33.7177 10.9074L32.6416 11.7495L29.2828 8.86244L25.3697 11.782V0.559283H25.076L20.2172 3.80323V4.09542C20.7061 4.38865 21.5216 4.58175 21.5216 6.2053L21.5218 21.4828ZM46.5658 20.023L43.207 22.6181L39.7178 19.8919V18.2699L46.207 13.9568V13.7607L42.9787 8.82989L35.9025 12.5942V21.5461L34.5003 22.6179L34.7289 22.9086L36.0006 21.903L40.6311 25.2456L46.8269 20.3797L46.5658 20.023ZM39.7178 17.7847V11.1022L39.9463 10.9397L42.9464 15.6434L39.7178 17.7847ZM72.7823 2.14892C72.7823 1.72696 72.6842 1.37038 72.5214 0.885115H72.1953C71.7716 2.02049 71.2496 2.63553 69.9127 2.63553C68.7387 2.63553 67.8256 1.92318 67.3365 1.40282C67.3365 1.43347 63.4234 5.9119 63.4234 5.9119L63.7495 6.20511L64.8582 4.93997C65.706 5.58876 66.3242 6.20511 68.217 6.23617V17.59L60.1951 3.76947C59.5755 2.73141 58.532 1.17431 56.6081 1.17431C54.4558 1.17431 52.4667 3.02468 52.7276 6.13885H53.1189C53.2169 5.29543 53.6406 4.38715 54.5863 4.38715C55.3363 4.38715 56.0211 5.09949 56.3798 5.74961V10.1938C53.9015 10.1938 52.271 11.3291 52.271 13.339C52.271 14.3784 52.7928 16.1288 54.5211 16.4546L54.5519 16.1613C54.3234 15.9345 54.0938 15.676 54.0938 15.222C54.0938 14.4759 54.6482 13.9893 55.6591 13.9893C55.8224 13.9893 56.2786 14.0199 56.3765 14.0542V19.8283C53.4742 19.859 51.2242 21.449 51.2242 24.1752C51.2242 26.7704 53.4743 28.003 55.8221 27.8719L55.8529 27.549C54.3855 27.3866 53.6029 26.7057 53.6029 25.7649C53.6029 24.5971 54.4507 23.9821 55.5268 23.9821C56.6355 23.9821 57.6138 24.6633 58.2986 25.4419L62.2443 21.0626L61.9182 20.7694L60.9074 21.9047C59.4073 20.5761 58.5595 20.0881 56.8312 19.8299V6.17027L67.8857 25.3433H68.6684V6.23516C70.7893 6.10693 72.7785 4.51727 72.7785 2.1492L72.7823 2.14892ZM82.6629 20.023L79.3041 22.6195L75.8149 19.8932V18.2713L82.3041 13.9582V13.762L79.0759 8.83122L71.9996 12.5955V21.5474L70.5974 22.6193L70.826 22.9099L72.0977 21.9043L76.7282 25.2469L82.924 20.381L82.6631 20.0229L82.6629 20.023ZM75.8149 17.7847V11.1022L76.0434 10.9397L79.0435 15.6434L75.8149 17.7847ZM105.097 10.3236L104.086 11.0698L101.477 8.86388L98.4444 11.5901L99.6835 12.7566V23.0399L96.3574 20.9313V12.562L97.4334 11.8159L94.2377 8.86247L91.2703 11.5887L92.5095 12.7552V22.5208L92.0858 22.7788L89.1836 20.7351V12.5293C89.1836 10.6478 88.2705 10.0964 87.064 9.35025C86.0531 8.7339 85.5965 8.21486 85.5965 7.27412C85.5965 6.49558 86.3792 6.04142 86.7705 5.81434C86.7397 5.78369 86.7397 5.48995 86.7397 5.48995C85.6962 5.4593 82.794 6.59291 82.7287 9.22183C82.6979 10.5843 83.3483 11.1668 84.0331 11.8169C84.7179 12.4644 85.3375 13.0821 85.3375 14.2161V22.0989L83.8701 23.2343L84.0986 23.5275L85.4356 22.4894L89.0552 25.3117L92.4792 23.0085L96.2618 25.3117L103.534 21.0946V11.9453L105.327 10.6478L105.099 10.3234L105.097 10.3236ZM130.499 2.83013L129.13 4.06284L126.064 1.40146L121.597 4.71162V1.59746H121.14L121.238 23.6886C120.781 23.6238 119.64 23.3642 118.597 23.2033L118.499 4.74397C118.499 3.38152 117.521 1.50003 115.075 1.50003C112.564 1.50003 110.934 3.41398 110.934 5.32789H111.325C111.455 4.51691 111.879 3.80323 112.695 3.80323C113.542 3.80323 114.26 4.32225 114.26 6.13885V11.4589C111.749 11.556 110.314 12.9511 110.314 14.6704C110.314 15.7409 110.804 17.3953 112.564 17.4602L112.629 17.1358C112.042 16.8778 111.912 16.5194 111.912 16.195C111.912 15.4179 112.662 15.0935 113.705 15.0935H114.194V23.5277C112.205 24.2089 111.292 25.6687 111.292 27.3231C111.292 29.5939 113.118 31.3131 115.792 31.3131C117.684 31.3131 119.314 30.9887 121.042 30.5995C122.445 30.3073 124.14 29.9831 124.955 29.9831C125.999 29.9831 126.455 30.4695 126.455 31.2158C126.455 32.1552 126.031 32.5134 125.477 32.6756L125.542 33C127.792 32.5785 129.097 31.2469 129.097 29.237C129.097 27.1609 127.108 25.9282 124.89 25.9282C123.749 25.9282 121.499 26.2853 119.803 26.6756C117.912 27.0961 115.988 27.2907 115.401 27.2907C114.455 27.2907 113.281 26.8365 113.281 25.5714C113.281 24.436 114.227 23.5277 116.575 23.5277C117.847 23.5277 119.281 23.7223 120.847 24.0778C122.51 24.4359 123.977 24.8902 125.412 24.8902C127.401 24.8902 129.195 24.1765 129.195 21.2894V4.48447L130.792 3.12069L130.499 2.83013ZM124.89 11.2319C124.532 11.6212 123.945 12.0105 123.26 12.0105C122.51 12.0105 121.956 11.5563 121.597 11.2319V5.1658L122.999 4.22505L124.89 5.94433V11.2319ZM124.89 15.2868C124.564 14.964 123.977 14.6056 123.26 14.6056C122.543 14.6056 121.89 15.026 121.597 15.2868V11.7185C121.891 11.9765 122.543 12.4308 123.26 12.4308C123.977 12.4308 124.564 12.0431 124.89 11.7185V15.2868ZM124.89 21.645C124.89 22.7479 124.14 23.817 122.706 23.817C122.477 23.817 121.825 23.7864 121.597 23.7537V15.7736C121.923 15.4804 122.51 15.0262 123.26 15.0262C123.945 15.0262 124.499 15.417 124.89 15.7736V21.645ZM143.608 11.9767L139.173 8.83005L132.521 12.6268V21.5152L131.151 22.6181L131.347 22.9088L132.423 22.0343L136.825 25.2458L143.608 21.126V11.9767ZM136.336 20.5745V10.8426L139.793 13.3081V23.0399L136.336 20.5745ZM156.684 9.18827C156.684 9.21892 156.424 9.18827 156.424 9.18827C156.065 9.51113 155.608 9.73836 155.217 9.73836C154.695 9.73836 154.011 9.41549 153.684 8.99363H153.424L151.108 11.5225L148.728 8.99363L144.684 11.782L144.88 12.1049L145.956 11.3926L147.358 12.8848V21.4812L145.532 22.845L145.761 23.103L146.641 22.4866L149.935 25.2751L154.206 22.4529L154.011 22.1606L152.804 22.8743L151.206 21.4456V11.876C151.891 12.6235 152.706 13.2723 153.652 13.2723C155.478 13.2749 156.489 11.2637 156.685 9.18764L156.684 9.18827ZM173.152 22.2613L168.489 25.3106L162.163 15.8059L166.63 8.89763L166.924 8.867C167.446 9.38603 168.359 9.93749 169.207 9.93749C170.152 9.93749 170.805 9.41846 171.196 8.867C171.196 8.867 171.457 8.89765 171.457 8.867C171.294 11.6243 169.435 13.1814 168.033 13.1814C166.598 13.1814 165.913 12.5326 165.163 12.0785L164.739 12.6948L171.587 22.7834L172.957 21.94L173.152 22.2613ZM158.087 21.4828L156.261 22.8465L156.489 23.1045L157.369 22.4882L160.434 25.2766L164.543 22.5517L164.315 22.26L163.271 22.9412L161.934 21.6126V0.559439H161.64L156.684 3.83581V4.12804C157.173 4.41974 158.086 4.54947 158.086 6.20413L158.087 21.4828ZM195.879 3.38163C195.879 0.689167 193.336 -0.0893779 191.216 0.00794007V0.429379C192.488 0.46003 193.466 0.883533 193.466 1.72558C193.466 2.31086 193.043 3.0556 191.771 3.0556C190.76 3.0556 188.803 2.47167 187.238 1.95265C185.51 1.36874 183.879 0.817259 182.51 0.817259C179.836 0.817259 177.814 2.79745 177.814 5.22901C177.814 7.20919 179.314 7.9215 179.934 8.1824L180.129 7.85801C179.738 7.59849 179.347 7.30785 179.347 6.5293C179.347 5.94407 179.868 5.00335 181.238 5.00335C182.477 5.00335 184.108 5.55481 186.26 6.17116C188.118 6.69019 190.173 7.17675 191.282 7.30783V11.5236L189.195 13.2443V13.4067L191.282 15.2233V21.0299C190.205 21.6463 188.966 21.8085 187.89 21.8085C185.901 21.8085 184.01 21.2895 182.51 19.6351L188.118 16.9426V7.63117L181.238 10.6818C181.955 8.86387 183.39 7.66494 184.858 6.78775L184.76 6.46336C180.684 7.5663 176.966 11.2968 176.966 15.9032C176.966 21.4179 181.466 25.5039 186.586 25.5039C192.13 25.5039 195.651 21.1908 195.586 16.6169L195.26 16.5862C194.445 18.3379 193.271 19.9923 191.738 20.8682V15.2238L193.956 13.472L193.925 13.2774L191.74 11.5243V7.30857C193.762 7.30857 195.882 5.94613 195.882 3.38342L195.879 3.38163ZM183.977 18.4659L182.314 19.2769C181.368 18.0442 180.749 16.3898 180.749 14.0866C180.749 13.1458 180.846 11.9766 181.14 11.167L184.01 9.9019L183.979 18.4659H183.977ZM200.575 2.11509L200.38 2.08446L197.64 4.38766V4.5823L199.956 7.17742H200.184L202.923 4.90669L202.893 4.74424L200.577 2.11533L200.575 2.11509ZM204.749 22.2613L203.706 22.9425L202.369 21.6138V12.2037L203.673 11.2306L203.412 10.9077L202.401 11.6849L200.021 8.86267L196.108 11.5889L196.336 11.946L197.315 11.2959L198.521 12.7881V21.6116L196.76 22.9402L196.956 23.1997L197.869 22.5509L200.869 25.2759L204.978 22.5509L204.749 22.2613ZM227.576 22.0988L226.597 22.7477L225.13 21.4176V12.1724L226.532 11.1344L226.304 10.8411L225.097 11.7494L221.967 8.86232L217.923 11.717L214.825 8.86232L210.847 11.6846L208.401 8.86232L204.488 11.5886L204.684 11.9456L205.662 11.2955L206.999 12.7553V21.5788L205.923 22.6493L209.053 25.2755L212.086 22.5506L210.847 21.3841V12.1727L212.021 11.3942L214.14 13.3392V21.5801L213.097 22.6506L216.26 25.2769L219.227 22.552L217.988 21.3855V12.1065L219.032 11.4253L221.282 13.3392V21.449L220.369 22.3898L223.564 25.2769L227.771 22.4235L227.576 22.0988ZM239.478 20.0227L236.119 22.6192L232.63 19.893V18.271L239.119 13.9579V13.7617L235.891 8.83098L228.815 12.5952V21.8405L233.543 25.2453L239.739 20.3794L239.478 20.0227ZM232.63 17.7844V11.1019L232.859 10.9395L235.859 15.6432L232.63 17.7844ZM252 16.5139L249.359 14.5351C251.12 13.0104 251.804 10.9654 251.804 9.57186C251.804 9.37723 251.774 9.0204 251.739 8.69601H251.413C251.152 9.40968 250.63 10.026 249.554 10.026C248.511 10.026 247.761 9.44212 247.109 8.72708L240.945 12.0697V17.0329L243.228 18.817C240.913 20.8607 240.489 22.2881 240.489 23.3261C240.489 24.6886 241.109 25.6631 242.282 26.1159L242.445 25.8227C242.152 25.5647 241.891 25.4007 241.891 24.7846C241.891 24.3305 242.445 23.6817 243.489 23.6817C244.826 23.6817 245.641 24.59 246.065 25.0766C246.065 25.0459 252 21.5407 252 21.5407L252 16.5139ZM250.533 12.4252C249.62 14.0471 247.5 15.638 246.326 16.5463L244.826 15.3785V10.545C245.413 11.8426 246.848 12.9456 248.413 12.9456C249.326 12.9456 249.815 12.7821 250.533 12.4252ZM248.119 23.2613C247.435 21.7366 245.837 20.6337 244.206 20.6337C243.815 20.6337 242.674 20.6337 241.63 21.2838C242.25 20.2444 244.076 18.298 246.424 16.9045L248.119 18.2021V23.2613Z" fill="black"/>
</g>
<defs>
<clipPath id="clip0">
<rect width="252" height="33" fill="white"/>
</clipPath>
</defs>
</svg>
