<svg width="116" height="36" viewBox="0 0 116 36" fill="none" xmlns="http://www.w3.org/2000/svg">
<path d="M60.9531 25.7109C60.2344 24.6328 59.5156 23.2188 58.7969 21.4688L56.2188 14.8125C56.1406 14.6406 56.0938 14.4531 56.0781 14.25C56.0469 13.8125 56.1719 13.4375 56.4531 13.125C56.75 12.8125 57.125 12.6562 57.5781 12.6562C58.0625 12.6562 58.4219 12.7656 58.6562 12.9844C58.9062 13.1875 59.1094 13.4531 59.2656 13.7812L61.4922 19.875C61.7422 20.5156 61.9844 21.125 62.2188 21.7031C62.4688 22.2656 62.7422 22.7812 63.0391 23.25C63.3359 23.7188 63.6719 23.9688 64.0469 24C64.4062 23.9688 64.7266 23.7188 65.0078 23.25C65.3203 22.7812 65.5938 22.2656 65.8281 21.7031C66.0781 21.125 66.3281 20.5156 66.5781 19.875L68.7578 13.7812C68.9141 13.4531 69.1094 13.1875 69.3438 12.9844C69.5938 12.7656 69.9766 12.6562 70.4922 12.6562C70.9453 12.6562 71.3125 12.8125 71.5938 13.125C71.8906 13.4375 72.0234 13.8125 71.9922 14.25C71.9766 14.4531 71.9297 14.6406 71.8516 14.8125L69.2734 21.4688C68.5547 23.25 67.8359 24.6719 67.1172 25.7344C66.4141 26.7812 65.3906 27.3125 64.0469 27.3281C62.6875 27.3125 61.6562 26.7734 60.9531 25.7109ZM76.0234 16.0781C76.4453 16.0938 76.8047 16.25 77.1016 16.5469C77.3984 16.8281 77.5547 17.1797 77.5703 17.6016V25.7109C77.4766 26.6484 76.9609 27.1562 76.0234 27.2344C75.5859 27.2344 75.2031 27.0938 74.875 26.8125C74.5625 26.5156 74.4062 26.1484 74.4062 25.7109V17.6016C74.4219 17.1641 74.5859 16.8047 74.8984 16.5234C75.2109 16.2266 75.5859 16.0781 76.0234 16.0781ZM74.0547 13.0312C74.0547 12.5938 74.2422 12.2188 74.6172 11.9062C74.9922 11.5938 75.4453 11.4375 75.9766 11.4375C76.5078 11.4375 76.9609 11.5938 77.3359 11.9062C77.7109 12.2188 77.8984 12.5938 77.8984 13.0312C77.8984 13.4844 77.7109 13.8672 77.3359 14.1797C76.9609 14.4922 76.5078 14.6484 75.9766 14.6484C75.4453 14.6484 74.9922 14.4922 74.6172 14.1797C74.2422 13.8672 74.0547 13.4844 74.0547 13.0312ZM84.1328 25.7109C83.3359 24.6328 82.5391 23.2188 81.7422 21.4688L80.2188 18.1875C80.1406 18.0156 80.0938 17.8281 80.0781 17.625C80.0469 17.1875 80.1797 16.8125 80.4766 16.5C80.7734 16.1875 81.1641 16.0312 81.6484 16.0312C82.1797 16.0312 82.5703 16.1406 82.8203 16.3594C83.0859 16.5625 83.2969 16.8281 83.4531 17.1562L84.5547 19.875C84.8359 20.5156 85.1094 21.125 85.375 21.7031C85.6562 22.2656 85.9688 22.7812 86.3125 23.25C86.6719 23.7188 87.0703 23.9688 87.5078 24C87.9297 23.9688 88.3281 23.7188 88.7031 23.25C89.0312 22.7812 89.3281 22.2656 89.5938 21.7031C89.875 21.125 90.1562 20.5156 90.4375 19.875L91.5391 17.1562C91.6953 16.8281 91.8984 16.5625 92.1484 16.3594C92.4141 16.1406 92.8125 16.0312 93.3438 16.0312C93.8281 16.0312 94.2188 16.1875 94.5156 16.5C94.8125 16.8125 94.9453 17.1875 94.9141 17.625C94.8984 17.8281 94.8516 18.0156 94.7734 18.1875L93.25 21.4688C92.4531 23.2188 91.6562 24.6328 90.8594 25.7109C90.0938 26.7734 88.9766 27.3125 87.5078 27.3281C86.0234 27.3125 84.8984 26.7734 84.1328 25.7109ZM110.617 25.7109V20.0625C110.617 19.6719 110.414 19.4688 110.008 19.4531H101.805C101.508 19.4688 101.25 19.6016 101.031 19.8516C100.812 20.0859 100.648 20.3672 100.539 20.6953C100.445 21.0078 100.398 21.3281 100.398 21.6562C100.398 21.9688 100.445 22.2891 100.539 22.6172C100.648 22.9297 100.812 23.2109 101.031 23.4609C101.25 23.6953 101.508 23.8125 101.805 23.8125H107.805C108.242 23.8125 108.609 23.9688 108.906 24.2812C109.219 24.5781 109.375 24.9453 109.375 25.3828C109.375 25.8203 109.219 26.1875 108.906 26.4844C108.609 26.7969 108.242 26.9531 107.805 26.9531H101.898C100.805 26.9375 99.8984 26.6328 99.1797 26.0391C98.4766 25.4297 97.9688 24.75 97.6562 24C97.3594 23.2344 97.2109 22.4453 97.2109 21.6328C97.2109 20.8516 97.3672 20.0859 97.6797 19.3359C97.9922 18.5703 98.5 17.8906 99.2031 17.2969C99.9062 16.6875 100.945 16.3594 102.32 16.3125H112.164C112.602 16.3125 112.977 16.4609 113.289 16.7578C113.602 17.0391 113.766 17.3984 113.781 17.8359V25.7109C113.781 26.1484 113.617 26.5156 113.289 26.8125C112.977 27.0938 112.602 27.2344 112.164 27.2344C111.227 27.1562 110.711 26.6484 110.617 25.7109Z" fill="#232323"/>
<path d="M7.07529 12.1263L11.6161 9.53431L9.08147 5.19155H32.9185L21.0038 25.6243L18.4693 21.274L13.9286 23.8736L21.0038 36L42 0H0L7.07529 12.1263Z" fill="#414042"/>
</svg>
