<svg width="472" height="261" viewBox="0 0 472 261" fill="none" xmlns="http://www.w3.org/2000/svg">
<path d="M66.6 257.4C45.24 257.4 28.8 252.84 17.28 243.72C5.76 234.6 2.68221e-07 222.96 2.68221e-07 208.8C2.68221e-07 199.44 2.04 190.2 6.12 181.08C7.8 176.76 9.96 172.8 12.6 169.2C22.44 166.8 33.12 164.64 44.64 162.72C70.56 158.4 93.48 155.76 113.4 154.8V144C113.4 117.36 110.16 99 103.68 88.92C97.2 78.84 87.24 73.8 73.8 73.8C68.76 73.8 64.44 74.4 60.84 75.6L55.8 77.4V131.4L51.12 132.48C47.28 132.96 44.04 133.2 41.4 133.2C33.24 133.2 26.64 130.8 21.6 126C16.8 120.96 14.4 114.36 14.4 106.2C14.4 95.16 19.92 85.8 30.96 78.12C42.24 70.44 58.92 66.6 81 66.6C99.72 66.6 115.8 69.96 129.24 76.68C142.92 83.16 153.24 92.28 160.2 104.04C167.4 115.56 171 128.88 171 144V241.2L192.6 246.6V252H160.2C145.8 252 134.64 247.56 126.72 238.68C123.36 235.08 120.72 230.52 118.8 225C115.44 231 111.48 236.4 106.92 241.2C96.12 252 82.68 257.4 66.6 257.4ZM81 244.8C89.88 244.8 97.92 240 105.12 230.4C107.76 226.8 110.52 222 113.4 216V163.8C102.36 163.8 91.8 164.4 81.72 165.6C74.28 166.56 69.24 167.16 66.6 167.4C65.4 170.04 64.2 173.64 63 178.2C60.6 187.32 59.4 196.32 59.4 205.2C59.4 218.64 61.44 228.6 65.52 235.08C69.6 241.56 74.76 244.8 81 244.8ZM333.169 257.4C317.089 257.4 303.649 252 292.849 241.2C288.289 236.4 284.329 231 280.969 225C279.289 230.28 276.409 235.08 272.329 239.4C263.209 249 249.889 253.8 232.369 253.8H228.769V10.8L207.169 5.39998V-1.71661e-05H253.969C275.569 -1.71661e-05 286.369 10.8 286.369 32.4V81C290.209 77.88 293.929 75.48 297.529 73.8C306.169 69 316.249 66.6 327.769 66.6C352.009 66.6 371.209 74.88 385.369 91.44C399.769 107.76 406.969 131.28 406.969 162C406.969 182.4 403.729 199.8 397.249 214.2C390.769 228.36 382.009 239.16 370.969 246.6C359.929 253.8 347.329 257.4 333.169 257.4ZM318.769 244.8C326.449 244.8 332.809 238.8 337.849 226.8C343.129 214.56 345.769 192.96 345.769 162C345.769 129.6 342.889 107.4 337.129 95.4C331.609 83.4 323.689 77.4 313.369 77.4C307.129 77.4 300.769 79.8 294.289 84.6C292.369 86.04 289.729 88.44 286.369 91.8V216C288.529 221.52 291.169 226.32 294.289 230.4C301.489 240 309.649 244.8 318.769 244.8ZM452.053 324V-1.71661e-05H471.853V324H452.053Z" fill="white"/>
</svg>
