<svg width="469" height="261" viewBox="0 0 469 261" fill="none" xmlns="http://www.w3.org/2000/svg">
<path fill-rule="evenodd" clip-rule="evenodd" d="M272.379 204.127L247.802 213.336V217.94H304.637V213.336L281.596 204.127L301.872 155.014H375.298L390.966 191.849C394.243 199.625 399.261 205.969 406.02 210.88C412.779 215.587 421.483 217.94 432.134 217.94H469V213.336L453.639 208.732L366.081 0H356.865L272.379 204.127ZM372.226 147.34H304.945L338.432 66.61L372.226 147.34Z" fill="white"/>
<path fill-rule="evenodd" clip-rule="evenodd" d="M287.128 71.264V89.8556H247.802C232.735 131.623 212.561 165.241 186.003 191.982C213.838 215.412 248.312 232.731 289.682 242.408C285.085 246.738 278.956 255.397 276.147 260.745C233.501 249.794 198.771 231.457 170.681 206.244C142.591 230.184 108.116 247.757 67.0022 261C65.2147 256.416 59.0859 247.247 55 242.918C95.6033 231.203 129.056 214.903 156.381 192.491C130.078 164.731 110.159 130.35 95.6033 89.8556H58.0644V71.264H161.999V28.2232H181.151V71.264H287.128ZM171.447 178.739C194.941 155.053 212.816 125.765 225.84 89.8556H116.543C129.056 123.983 147.187 154.035 171.447 178.739Z" fill="white"/>
<path d="M0 324V0H19.8V324H0Z" fill="white"/>
<path d="M0 324V0H19.8V324H0Z" fill="white"/>
<circle cx="173" cy="191" r="8" fill="#F5F7F7" stroke="white" stroke-width="14"/>
<circle cx="173" cy="191" r="15" fill="white"/>
</svg>
