<svg width="324" height="322" viewBox="0 0 324 322" fill="none" xmlns="http://www.w3.org/2000/svg">
<path d="M0 152L324 152L324 171.8L-8.65485e-07 171.8L0 152Z" fill="white"/>
<path d="M152 324V0H171.8V324H152Z" fill="white"/>
<circle cx="162" cy="162" r="112" fill="#F5F7F7" stroke="white" stroke-width="22"/>
<path d="M212 162C212 163.687 211.916 165.355 211.753 167C209.458 190.12 191.413 208.607 168.5 211.581C166.372 211.858 164.203 212 162 212C134.386 212 112 189.614 112 162C112 134.386 134.386 112 162 112C164.723 112 167.395 112.218 170 112.637C192.197 116.206 209.508 134.387 211.753 157C211.916 158.645 212 160.312 212 162Z" fill="white"/>
</svg>
