<svg width="371" height="333" viewBox="0 0 371 333" fill="none" xmlns="http://www.w3.org/2000/svg">
<path d="M359 185C359 281.098 281.098 359 185 359C88.9025 359 11 281.098 11 185C11 88.9025 88.9025 11 185 11C281.098 11 359 88.9025 359 185Z" fill="#F5F7F7" stroke="white" stroke-width="22"/>
<path d="M266 184.809C266 187.077 266 190.857 261.99 193.545C234.589 214.376 182.458 253.352 151.046 276.199C140.353 283.977 133 273.511 133 269.479C133 229.16 133 221.922 133 184.809C133.668 147.85 133 136.426 133 102.154C134.337 91.4028 145.03 90.0588 149.709 94.0905C184.462 119.626 225.899 149.866 261.99 177.417C264.631 179.433 266 182.541 266 184.809Z" fill="white"/>
<rect x="349" y="166" width="22" height="22" fill="white"/>
<rect y="166" width="22" height="22" fill="white"/>
</svg>
