<svg width="129" height="129" viewBox="0 0 129 129" fill="none" xmlns="http://www.w3.org/2000/svg">
<path d="M128.13 1H1V128.13H128.13V1Z" fill="white"/>
<g opacity="0.1">
<path opacity="0.1" d="M128.12 125.12V128.12H125.12" stroke="#20263C" stroke-miterlimit="10"/>
<path opacity="0.1" d="M119.35 128.12H6.87988" stroke="#20263C" stroke-miterlimit="10" stroke-dasharray="5.77 5.77"/>
<path opacity="0.1" d="M3.99997 128.12H1V125.12" stroke="#20263C" stroke-miterlimit="10"/>
<path opacity="0.1" d="M1 119.35V6.87988" stroke="#20263C" stroke-miterlimit="10" stroke-dasharray="5.77 5.77"/>
<path opacity="0.1" d="M1 4V1H3.99997" stroke="#20263C" stroke-miterlimit="10"/>
<path opacity="0.1" d="M9.75977 1H122.24" stroke="#20263C" stroke-miterlimit="10" stroke-dasharray="5.77 5.77"/>
<path opacity="0.1" d="M125.12 1H128.12V4" stroke="#20263C" stroke-miterlimit="10"/>
<path opacity="0.1" d="M128.12 9.75977V122.24" stroke="#20263C" stroke-miterlimit="10" stroke-dasharray="5.77 5.77"/>
</g>
<path d="M65 78.3379C63.0535 78.3466 61.1327 77.875 59.3952 76.962C57.6578 76.0489 56.153 74.7204 55.0046 73.0854L47 77.8682C47.3046 78.2335 47.6652 78.5437 48.0673 78.7863L62.3113 87.327C63.1438 87.7694 64.0652 88 65 88C65.9348 88 66.8562 87.7694 67.6887 87.327L81.9327 78.7863C82.3348 78.5437 82.6954 78.2335 83 77.8682L75.016 73C73.8743 74.6537 72.3703 76.0005 70.6284 76.9288C68.8866 77.8571 66.9571 78.3402 65 78.3379Z" fill="#414042"/>
<path d="M52.4673 65.449C52.4746 62.4125 53.6548 59.485 55.7823 57.2261C57.9098 54.9672 60.8355 53.5353 64 53.2041V44C63.5199 44.0952 63.058 44.2604 62.6306 44.4898L47.7815 52.6531C46.9744 53.1681 46.3033 53.8543 45.8208 54.6581C45.3382 55.4618 45.0573 56.3611 45 57.2857V73.6122C45.0066 74.0833 45.0858 74.551 45.2353 75L53.58 70.4082C52.8503 68.8473 52.4713 67.158 52.4673 65.449Z" fill="#414042"/>
<path d="M82.3649 52.6474L68.2973 44.4895C67.8925 44.2602 67.4549 44.0951 67 44V53.1776C68.9111 53.3955 70.7447 54.0617 72.3531 55.1229C73.9615 56.184 75.2998 57.6103 76.2602 59.2869C77.2206 60.9635 77.7762 62.8436 77.8824 64.7758C77.9886 66.708 77.6424 68.6382 76.8716 70.4112L84.7771 75C84.9187 74.5512 84.9938 74.0839 85 73.6132V57.2974C84.9488 56.3699 84.6841 55.4671 84.2268 54.6601C83.7694 53.8531 83.1321 53.1641 82.3649 52.6474Z" fill="#414042"/>
<path d="M92.6116 44.4711L69.3885 31.0403C68.0266 30.3562 66.5238 30 65 30C63.4762 30 61.9736 30.3562 60.6116 31.0403L37.3884 44.4711C36.1137 45.3027 35.0524 46.4228 34.29 47.7409C33.5277 49.059 33.0858 50.5381 33 52.0587V78.9202C33.0842 80.4441 33.5253 81.9268 34.2876 83.2485C35.0499 84.5703 36.1121 85.694 37.3884 86.5289L60.6116 99.96C61.9736 100.644 63.4762 101 65 101C66.5238 101 68.0266 100.644 69.3885 99.96L92.6116 86.5289C93.8879 85.694 94.9501 84.5703 95.7124 83.2485C96.4747 81.9268 96.9158 80.4441 97 78.9202V52.0587C96.9142 50.5381 96.4723 49.059 95.71 47.7409C94.9476 46.4228 93.8863 45.3027 92.6116 44.4711ZM89.6299 75.8305C89.5617 77.0012 89.2204 78.1395 88.6333 79.1542C88.0463 80.169 87.2298 81.0318 86.2493 81.6737L68.3595 92.0147C67.3145 92.543 66.1602 92.8183 64.9895 92.8183C63.8188 92.8183 62.6644 92.543 61.6195 92.0147L43.7507 81.6737C42.7702 81.0318 41.9537 80.169 41.3667 79.1542C40.7796 78.1395 40.4383 77.0012 40.3701 75.8305V55.1695C40.4383 53.9988 40.7796 52.8605 41.3667 51.8458C41.9537 50.831 42.7702 49.9681 43.7507 49.3263L61.5984 38.9853C62.6434 38.457 63.7977 38.1817 64.9685 38.1817C66.1392 38.1817 67.2936 38.457 68.3386 38.9853L86.2283 49.3263C87.2126 49.9658 88.0333 50.8277 88.6241 51.8426C89.2149 52.8574 89.5594 53.997 89.6299 55.1695V75.8305Z" fill="#414042"/>
<path d="M56 65.5C56 67.1811 56.5278 68.8245 57.5167 70.2223C58.5056 71.6202 59.9113 72.7096 61.5559 73.353C63.2004 73.9963 65.01 74.1646 66.7559 73.8367C68.5017 73.5087 70.1053 72.6992 71.3639 71.5104C72.6226 70.3217 73.4798 68.8071 73.8271 67.1583C74.1743 65.5094 73.9961 63.8004 73.3149 62.2472C72.6337 60.694 71.4803 59.3665 70.0002 58.4325C68.5202 57.4985 66.78 57 65 57C62.6131 57 60.3239 57.8955 58.6361 59.4896C56.9482 61.0837 56 63.2457 56 65.5Z" fill="#414042"/>
</svg>
