<svg width="129" height="129" viewBox="0 0 129 129" fill="none" xmlns="http://www.w3.org/2000/svg">
<path d="M128.13 1H1V128.13H128.13V1Z" fill="white"/>
<g opacity="0.1">
<path opacity="0.1" d="M128.13 125.12V128.12H125.13" stroke="#20263C" stroke-miterlimit="10"/>
<path opacity="0.1" d="M119.36 128.12H6.87988" stroke="#20263C" stroke-miterlimit="10" stroke-dasharray="5.77 5.77"/>
<path opacity="0.1" d="M4 128.12H1V125.12" stroke="#20263C" stroke-miterlimit="10"/>
<path opacity="0.1" d="M1 119.35V6.87988" stroke="#20263C" stroke-miterlimit="10" stroke-dasharray="5.77 5.77"/>
<path opacity="0.1" d="M1 4V1H4" stroke="#20263C" stroke-miterlimit="10"/>
<path opacity="0.1" d="M9.77002 1H122.24" stroke="#20263C" stroke-miterlimit="10" stroke-dasharray="5.77 5.77"/>
<path opacity="0.1" d="M125.13 1H128.13V4" stroke="#20263C" stroke-miterlimit="10"/>
<path opacity="0.1" d="M128.13 9.75977V122.24" stroke="#20263C" stroke-miterlimit="10" stroke-dasharray="5.77 5.77"/>
</g>
<path d="M47.3298 52.6984L51.3298 54.6984C52.0661 55.02 52.8673 55.1649 53.6695 55.1215C54.4717 55.0781 55.2526 54.8476 55.9498 54.4484L59.7299 51.9884C60.3803 51.5163 60.9097 50.8968 61.2747 50.1807C61.6397 49.4646 61.83 48.6722 61.8298 47.8684L61.5899 43.3584C61.5023 42.5611 61.2287 41.7954 60.791 41.1232C60.3532 40.451 59.7637 39.891 59.0698 39.4884L55.0698 37.4384C54.335 37.113 53.5338 36.9652 52.7312 37.0069C51.9286 37.0486 51.147 37.2786 50.4498 37.6784L46.6699 40.1384C46.0206 40.6117 45.492 41.2314 45.1272 41.9473C44.7623 42.6631 44.5713 43.455 44.5698 44.2584L44.8098 48.7684C44.8875 49.5766 45.1566 50.3546 45.5948 51.038C46.033 51.7215 46.6278 52.2907 47.3298 52.6984Z" fill="#414042"/>
<path d="M71.4597 58.5385L67.4597 56.4885C66.7252 56.167 65.9256 56.0222 65.125 56.0656C64.3244 56.109 63.5452 56.3395 62.8497 56.7385L59.0297 59.1985C58.3828 59.674 57.8559 60.2942 57.4913 61.0096C57.1267 61.7249 56.9343 62.5156 56.9297 63.3185L57.1698 67.8285C57.2573 68.6259 57.5309 69.3916 57.9686 70.0638C58.4064 70.736 58.9959 71.296 59.6897 71.6985L63.6897 73.6985C64.4229 74.0238 65.2224 74.1717 66.0235 74.13C66.8245 74.0883 67.6043 73.8582 68.2997 73.4585L72.0897 70.9985C72.7369 70.5209 73.2637 69.8989 73.6282 69.1819C73.9928 68.465 74.1851 67.6728 74.1897 66.8685L73.9497 62.3685C73.858 61.5814 73.5855 60.8261 73.1536 60.1617C72.7216 59.4973 72.1419 58.9418 71.4597 58.5385Z" fill="#414042"/>
<path d="M83.7998 77.5586L79.7998 75.5586C79.0649 75.2331 78.2638 75.0853 77.4612 75.127C76.6586 75.1687 75.877 75.3987 75.1798 75.7986L71.3999 78.2586C70.7517 78.7329 70.224 79.3529 69.8593 80.0685C69.4945 80.7841 69.3029 81.5754 69.2998 82.3786L69.5399 86.8886C69.6356 87.6731 69.911 88.425 70.3446 89.0857C70.7781 89.7465 71.3583 90.2984 72.0399 90.6986L76.0399 92.6986C76.7761 93.0201 77.5773 93.165 78.3795 93.1216C79.1817 93.0782 79.9626 92.8477 80.6599 92.4486L84.4498 89.9886C85.0973 89.5142 85.6239 88.894 85.987 88.1782C86.3501 87.4624 86.5395 86.6712 86.5399 85.8686L86.3298 81.4386C86.2435 80.6383 85.9694 79.8697 85.5297 79.1954C85.0901 78.5212 84.4973 77.9603 83.7998 77.5586Z" fill="#414042"/>
<path d="M54.33 66.3582L54.14 62.8482C54.1446 62.0453 54.3369 61.2546 54.7016 60.5393C55.0662 59.8239 55.593 59.2037 56.24 58.7282L63.61 53.9382C64.3054 53.5392 65.0847 53.3087 65.8853 53.2653C66.6859 53.2219 67.4855 53.3668 68.22 53.6882L71.36 55.2882C72.0949 55.6136 72.896 55.7615 73.6986 55.7198C74.5013 55.6781 75.2828 55.448 75.98 55.0482L79.76 52.5782C80.4087 52.1044 80.9368 51.4846 81.3016 50.7688C81.6664 50.0531 81.8577 49.2616 81.86 48.4582L81.62 43.9582C81.534 43.1591 81.261 42.3914 80.8232 41.7174C80.3854 41.0433 79.7951 40.4818 79.1 40.0782L75.1 38.0282C74.3638 37.7067 73.5626 37.5618 72.7603 37.6052C71.9581 37.6486 71.1772 37.8791 70.48 38.2782L66.62 40.6982C65.9725 41.1726 65.4459 41.7928 65.0828 42.5086C64.7197 43.2244 64.5303 44.0156 64.53 44.8182L64.71 48.3282C64.7097 49.1309 64.5202 49.9221 64.1571 50.6379C63.794 51.3537 63.2674 51.9739 62.62 52.4482L55.25 57.2382C54.5528 57.638 53.7713 57.8681 52.9687 57.9098C52.166 57.9515 51.3649 57.8036 50.63 57.4782L47.5 55.8882C46.7651 55.5628 45.964 55.415 45.1613 55.4567C44.3587 55.4984 43.5772 55.7284 42.88 56.1282L39.1 58.5882C38.4507 59.0615 37.9222 59.6812 37.5573 60.3971C37.1924 61.113 37.0015 61.9048 37 62.7082L37.24 67.2182C37.3252 68.0176 37.5979 68.7856 38.0357 69.4598C38.4736 70.134 39.0643 70.6953 39.76 71.0982L43.76 73.0982C44.4962 73.4198 45.2974 73.5647 46.0996 73.5213C46.9018 73.4779 47.6828 73.2474 48.38 72.8482L52.16 70.3882C52.8096 69.9309 53.3437 69.3287 53.7204 68.6292C54.097 67.9298 54.3057 67.1523 54.33 66.3582Z" fill="#414042"/>
<path d="M93.9198 62.9784C93.8307 62.1801 93.5565 61.4137 93.119 60.7401C92.6815 60.0665 92.0928 59.5043 91.3998 59.0984L87.3998 57.0984C86.6634 56.7776 85.8622 56.6331 85.0602 56.6765C84.2581 56.7199 83.4772 56.95 82.7798 57.3484L78.9997 59.8084C78.3516 60.2828 77.824 60.9027 77.4592 61.6183C77.0945 62.3339 76.9028 63.1252 76.8998 63.9284L77.0898 67.4484C77.0867 68.2515 76.8951 69.0428 76.5303 69.7584C76.1656 70.474 75.6379 71.094 74.9897 71.5684L67.6297 76.3484C66.9325 76.7475 66.1516 76.978 65.3494 77.0214C64.5472 77.0648 63.746 76.9199 63.0097 76.5984L59.8697 74.9984C59.1352 74.6769 58.3356 74.532 57.535 74.5754C56.7344 74.6189 55.9552 74.8493 55.2597 75.2484L51.4397 77.6984C50.7928 78.1739 50.266 78.794 49.9013 79.5094C49.5367 80.2247 49.3444 81.0154 49.3398 81.8184L49.5797 86.3283C49.6673 87.1257 49.9409 87.8914 50.3786 88.5636C50.8164 89.2358 51.4059 89.7958 52.0998 90.1984L56.0998 92.2484C56.8329 92.5737 57.6324 92.7215 58.4334 92.6798C59.2345 92.6381 60.0143 92.408 60.7098 92.0083L64.4997 89.5483C65.1461 89.0723 65.6726 88.452 66.0371 87.7368C66.4017 87.0215 66.5943 86.2311 66.5998 85.4284L66.4098 81.9083C66.412 81.105 66.6033 80.3135 66.9681 79.5978C67.3329 78.882 67.861 78.2622 68.5097 77.7883L75.8697 72.9984C76.5669 72.5986 77.3485 72.3685 78.1511 72.3268C78.9537 72.2851 79.7548 72.4329 80.4897 72.7583L83.6197 74.3484C84.3546 74.6738 85.1558 74.8216 85.9584 74.7799C86.761 74.7382 87.5425 74.5082 88.2397 74.1084L92.0298 71.6484C92.6766 71.1734 93.2028 70.5531 93.5658 69.8375C93.9289 69.1218 94.1186 68.3308 94.1197 67.5284L93.9198 62.9784Z" fill="#414042"/>
</svg>
