<svg width="129" height="129" viewBox="0 0 129 129" fill="none" xmlns="http://www.w3.org/2000/svg">
<path d="M128.13 1H1V128.13H128.13V1Z" fill="white"/>
<g opacity="0.1">
<path opacity="0.1" d="M128.12 125.12V128.12H125.12" stroke="#20263C" stroke-miterlimit="10"/>
<path opacity="0.1" d="M119.35 128.12H6.87988" stroke="#20263C" stroke-miterlimit="10" stroke-dasharray="5.77 5.77"/>
<path opacity="0.1" d="M4 128.12H1V125.12" stroke="#20263C" stroke-miterlimit="10"/>
<path opacity="0.1" d="M1 119.36V6.87988" stroke="#20263C" stroke-miterlimit="10" stroke-dasharray="5.77 5.77"/>
<path opacity="0.1" d="M1 4V1H4" stroke="#20263C" stroke-miterlimit="10"/>
<path opacity="0.1" d="M9.77002 1H122.24" stroke="#20263C" stroke-miterlimit="10" stroke-dasharray="5.77 5.77"/>
<path opacity="0.1" d="M125.12 1H128.12V4" stroke="#20263C" stroke-miterlimit="10"/>
<path opacity="0.1" d="M128.12 9.77002V122.24" stroke="#20263C" stroke-miterlimit="10" stroke-dasharray="5.77 5.77"/>
</g>
<path d="M66.1099 62.9602C63.5879 62.9546 61.1551 63.8928 59.2899 65.5902C59.5356 65.866 59.674 66.2209 59.6799 66.5902C59.6799 66.7959 59.6392 66.9996 59.5602 67.1895C59.4812 67.3794 59.3654 67.5518 59.2194 67.6968C59.0735 67.8418 58.9004 67.9565 58.7099 68.0343C58.5195 68.1121 58.3156 68.1515 58.1099 68.1502C57.8435 68.1504 57.5817 68.0815 57.3499 67.9502C56.2146 69.8783 55.7482 72.1275 56.0233 74.348C56.2984 76.5685 57.2995 78.6359 58.8709 80.2287C60.4424 81.8215 62.4961 82.8504 64.7127 83.1554C66.9293 83.4604 69.1846 83.0245 71.1278 81.9153C73.071 80.8062 74.5933 79.086 75.4579 77.0223C76.3225 74.9586 76.481 72.667 75.9087 70.504C75.3364 68.3409 74.0653 66.4276 72.2933 65.0615C70.5212 63.6954 68.3474 62.9532 66.1099 62.9502V62.9602ZM66.1099 76.3802C65.4627 76.3802 64.8301 76.1882 64.2921 75.8284C63.7542 75.4686 63.3351 74.9573 63.0879 74.3593C62.8407 73.7612 62.7765 73.1032 62.9035 72.4686C63.0305 71.834 63.3429 71.2513 63.8012 70.7944C64.2595 70.3375 64.8431 70.0269 65.4781 69.9018C66.1131 69.7768 66.7709 69.843 67.3682 70.092C67.9655 70.341 68.4756 70.7617 68.8337 71.3008C69.1918 71.8398 69.3819 72.473 69.3799 73.1202C69.3799 73.5491 69.2952 73.9739 69.1308 74.3701C68.9663 74.7662 68.7253 75.1261 68.4215 75.4289C68.1178 75.7318 67.7572 75.9717 67.3605 76.1349C66.9638 76.2982 66.5388 76.3815 66.1099 76.3802Z" fill="#414042"/>
<path d="M91.1899 82.59L69.8899 45.7C67.8099 42.1 64.4099 42.1 62.3399 45.7L40.9999 82.59C38.9199 86.18 40.6199 89.13 44.7799 89.13H87.4099C91.5699 89.16 93.2699 86.21 91.1899 82.59ZM66.1099 84.24C64.1211 84.2394 62.1686 83.7065 60.4553 82.6964C58.7421 81.6863 57.3304 80.236 56.3671 78.496C55.4037 76.756 54.9237 74.7899 54.977 72.8017C55.0303 70.8135 55.6148 68.8759 56.6699 67.19C56.5891 67.0039 56.5482 66.8029 56.5499 66.6C56.5499 66.1863 56.7143 65.7895 57.0069 65.4969C57.2994 65.2043 57.6962 65.04 58.1099 65.04C58.203 65.0297 58.2969 65.0297 58.3899 65.04C59.7039 63.7766 61.3077 62.8549 63.0609 62.3558C64.814 61.8566 66.6629 61.7953 68.4452 62.1772C70.2276 62.5591 71.889 63.3726 73.2837 64.5462C74.6784 65.7198 75.7639 67.2177 76.4448 68.9086C77.1257 70.5994 77.3813 72.4315 77.1892 74.2442C76.9971 76.0568 76.3631 77.7946 75.3428 79.3052C74.3226 80.8157 72.9473 82.0528 71.3375 82.908C69.7278 83.7631 67.9327 84.2102 66.1099 84.21V84.24Z" fill="#414042"/>
</svg>
