<svg width="1240" height="645" viewBox="0 0 1240 645" fill="none" xmlns="http://www.w3.org/2000/svg">
<path d="M0 0H1240V644H0V0Z" fill="#F6F7F6"/>
<path d="M669 127L1041 348" stroke="#E7E7E7"/>
<path d="M590 58L962 279" stroke="#E7E7E7"/>
<path d="M1124.39 276.639L769 489.639" stroke="#E7E7E7"/>
<path d="M164 423L536 644" stroke="#E7E7E7"/>
<path d="M185 412L557 633" stroke="#E7E7E7"/>
<path d="M899.392 315.5L544 528.5" stroke="#E7E7E7"/>
<path d="M879.392 305.639L524 518.639" stroke="#E7E7E7"/>
<path d="M919.392 328.639L564 541.639" stroke="#E7E7E7"/>
<path d="M226 270L598 491" stroke="#E7E7E7"/>
<path d="M246 256L618 477" stroke="#E7E7E7"/>
<path d="M167 187L539 408" stroke="#E7E7E7"/>
<path d="M88 118L460 339" stroke="#E7E7E7"/>
<path fill-rule="evenodd" clip-rule="evenodd" d="M542.5 150.5L503 174.5C503 174.5 509.658 180.55 508.5 187.5C507 196.5 498.5 203 498.5 203L290 371.5C290 371.5 279.519 379.729 271.5 381.5C261.092 383.799 244.5 377.5 244.5 377.5L206.5 401L374.5 502C374.5 502 402 520 445.5 519C489 518 513 499.5 513 499.5L722.5 349.5C761.5 320.5 762 278 722.5 256.5L542.5 150.5ZM580 221.5L326.5 423L376 455C376 455 392 464.5 413 460.5C434 456.5 451.5 442.5 451.5 442.5L643 300.5C657.449 289.992 656.873 268.72 643 258L580 221.5Z" fill="url(#paint0_linear)"/>
<path d="M284.5 401L541 197.5V206L284.5 401Z" fill="white"/>
<path d="M559.5 209.5L541 197.5V206L553.5 214L559.5 209.5Z" fill="#D4D4D4"/>
<path d="M580 269.5L327.5 422.5L580 221.5V269.5Z" fill="#FF6B73"/>
<path d="M503 174.5V198.5L503.053 198.487C505.332 195.746 507.762 191.925 508.5 187.5C509.658 180.55 503 174.5 503 174.5Z" fill="#A2A1A1"/>
<path d="M580 221.5V269.5L620 294C620 294 624.5 297 622.5 304.5C621.194 309.398 613.277 319.841 607.941 326.497L643 300.5C657.449 289.992 656.873 268.72 643 258L580 221.5Z" fill="#F02933"/>
<path d="M514.094 498.716L722.5 349.5C741.297 335.523 751.151 318.409 751.893 302.023L752 302V360.5L514.094 498.716Z" fill="#FF6B73"/>
<path d="M445.5 467.5L685.5 299V307.5L445.5 467.5Z" fill="white"/>
<path d="M219.5 145L224 136.5H229.5L226 145H219.5Z" fill="#E7E7E7"/>
<path d="M213.489 157.23L204 163L208 165.5L216.893 160.283L215.5 170.5H222.5L223 159.5H218.227L223.436 156.444L235 163.5L239.5 160.5L228.237 153.628L245.5 143.5L241 140.5L223.832 150.94L210 142.5L205.5 145.5L218.31 153.316C214.916 153.546 210.12 153.807 206.5 153.75C200.252 153.652 190.5 152.5 190.5 152.5L189 157C189 157 197.076 158 202.25 158C205.816 158 210.76 157.525 213.489 157.23Z" fill="#E7E7E7"/>
<path d="M252.5 150V154L236.5 155.5V151.5L252.5 150Z" fill="#E7E7E7"/>
<path fill-rule="evenodd" clip-rule="evenodd" d="M211 175.5L196.628 166.774L203 165.5L200 162L191.816 163.853L183 158.5L177.5 161.5L184.071 165.607L173.5 168C173.5 168 176.491 174.4 177.903 178.701C168.384 178.138 155 174 155 174L152 178.5C152 178.5 168.173 182.655 178.75 182.75C178.84 182.751 178.93 182.751 179.02 182.752C179.888 186.377 180.5 190 180.5 190L188 189C188 189 187.243 185.592 186.23 182.331C195.593 181.351 205.5 179 205.5 179L211 175.5ZM180.5 170L188.53 168.394L200.725 176.016C197.389 176.74 190.907 178.027 184.853 178.543C183.265 174.874 180.5 170 180.5 170Z" fill="#E7E7E7"/>
<path fill-rule="evenodd" clip-rule="evenodd" d="M245 163.5C253.45 160.879 266 155 266 155L270.5 158C270.5 158 261.747 161.911 253.233 165.048L269.759 175.04L273.5 173L301.549 189.779L305.5 181H313L309.5 191H303.59L329.5 206.5L314.5 216.5L309.5 213.5L319.257 207.12L272.308 178.615L262.5 184.5L258 182L265.045 177.442L262.851 176.135C258.055 178.759 239.243 188.798 225.5 192.5C223.012 193.17 220.29 193.741 217.456 194.226C214.24 205.075 216.5 210.5 216.5 210.5L207 211.5C207 211.5 208.082 202.223 210.442 195.243C195.864 197.023 181 197 181 197L183 192.5C183 192.5 198.169 192.659 212.327 190.807C216.338 183.243 224.57 175.427 229.008 171.53C226.03 172.13 224 172.5 224 172.5L225.5 168C225.5 168 237.536 165.816 245 163.5ZM238.209 169.536C233.326 173.239 223.354 181.46 219.175 189.717C221.036 189.359 222.825 188.955 224.5 188.5C236.682 185.189 253.103 176.349 258.33 173.441L247.55 167.019C247.022 167.188 246.505 167.349 246 167.5C243.663 168.2 240.934 168.896 238.209 169.536Z" fill="#E7E7E7"/>
<path d="M265.028 209.261L236.5 192L231 195L259.798 212.666L247 221C247 221 243.785 222.938 241.5 223C237.058 223.12 232.529 219.341 229.5 216.5L223.5 221C227.939 224.358 235.568 229.402 241.5 229C245.445 228.733 251 224.5 251 224.5L264.092 215.3L290.5 231.5L296 228L269.143 211.751L269.5 211.5L299.5 213L305 209.5L267.5 187L262 190L291.198 207.908L268.5 207L265.028 209.261Z" fill="#E7E7E7"/>
<path fill-rule="evenodd" clip-rule="evenodd" d="M195.5 229L188 224C188 224 182 220.5 179 224.5C176 228.5 179.353 236.357 184.5 240.5C187.867 243.21 190.678 244.018 195 244C198.05 243.987 200.257 243.101 202.606 242.158L202.609 242.157C204.63 241.345 208.923 238.977 211 240.5C212.5 241.6 216 246.937 208.5 253.5C201 260.062 187 253.5 182.5 251.5C180.981 250.825 179.404 249.978 177.617 249.019C174.111 247.136 169.792 244.818 163.5 242.5C154 239 148 238 146.5 241.5C145 245 148.5 251.5 153 253.5C157.5 255.5 163.371 255.72 169 253C170.902 252.081 173.5 250 173.5 250L176.5 251.5C176.5 251.5 172.269 260.187 164.939 265.5C158.956 269.837 150.095 271 146.5 271C138.5 271 128.5 264.5 128.5 264.5C128.5 264.5 103 249.5 102 250C101 250.5 102.5 255 103.5 255.5C104.5 256 128.5 269 128.5 269C128.5 269 129 272.5 115.5 273.5C102 274.5 102 282.5 102 282.5C102 282.5 77.5 276.5 93 304C93.099 304.175 91.1558 303.303 88.6141 302.162C83.917 300.053 77.1756 297.027 77.5 298C77.5905 298.271 77.681 298.625 77.7834 299.025C78.2466 300.833 78.9526 303.59 81 304C83.5 304.5 98 309 100.5 312C103 315 102.5 317 101.5 319C101.013 319.974 97.5 325 87.5 324C81.4007 323.015 74.9605 317.668 71.9157 315.14C71.2892 314.62 70.8065 314.219 70.5 314C67.0001 311.5 69 315.5 69 315.5C69 315.5 81 328 90.5 328.5C100 329 106.5 327 108.5 323.5C110.5 320 109 314.5 100 308C114.5 307 116.5 298 116.5 293.5C116.5 289 107.5 284 107.5 284C107.5 284 113.5 276 123 276.5C115.547 289.916 125.541 297.407 126.974 298.481L127 298.5C153 318 174.5 297.5 174.5 297.5C174.5 297.5 175 290 174 290C173.777 290 172.935 290.62 171.632 291.578C167.086 294.923 156.939 302.388 148 302C136.5 301.5 131.441 299.057 129 296.5C118.5 285.5 134 272 134 272C134 272 149 282.5 149.5 282C150 281.5 148 277 148 277C148 277 145 275.856 146.5 276C172.5 278.5 182.5 255.5 182.5 255.5C182.5 255.5 205.5 266 213.5 258C221.5 250 216.5 242 212.5 239C208.5 236 203 236.5 201 237C200.653 237.087 200.064 237.279 199.313 237.525C195.738 238.693 188.479 241.066 186 239C183 236.5 181.935 231.251 185 228.5C187.939 225.862 195 230 195 230L195.5 229ZM167.5 247C167.5 247 146.658 242.735 151 247.5C153.058 249.759 154.958 250.709 158 251C162.007 251.383 167.5 247 167.5 247ZM96 303.5C96 303.5 91.213 293.228 95 289C99.3306 284.165 110 289 111.5 291C113 293 107.294 298 105.5 299.5C103.706 301 96 303.5 96 303.5Z" fill="white"/>
<path d="M131 238L129 233.5H137.5L140.5 238.5L131 238Z" fill="white"/>
<path d="M221.5 259L230.5 259.5L233 264H224C225 265.667 226.9 269 226.5 269C226.1 269 219 268.667 215.5 268.5L214.5 264H222.5L221.5 259Z" fill="white"/>
<path d="M171 348.5L165 329L145.5 340V364.5L185 388L224.5 364.5L185 340L171 348.5Z" fill="#FE4B54"/>
<path d="M230.5 313.5L224.5 294L205 305V329.5L244.5 353L284 329.5L244.5 305L230.5 313.5Z" fill="#FE4B54"/>
<path d="M918 423L912 403.5L898 412L858.5 387.5L898 364L937.5 387.5V412L918 423Z" fill="#FE4B54"/>
<path d="M858.5 458L852.5 438.5L838.5 447L799 422.5L838.5 399L878 422.5V447L858.5 458Z" fill="#FE4B54"/>
<path d="M480.5 186.5L423 175L383.346 198.662L363.5 187L344 198L364.206 210.083L301.5 247.5C301.5 247.5 282.5 258 275.5 275.5C268.5 293 285 305 285 305L324.5 328.5L343 316C343 316 313.071 302.5 327 283C332.357 275.5 343 269 343 269L402.765 233.141L443.5 257.5L460.5 244L422.188 221.487L480.5 186.5Z" fill="url(#paint1_linear)"/>
<path d="M454 100H447L461 139.5L526 148V143.5L474.5 130.5L454 100Z" fill="#E7E7E7"/>
<path d="M432.5 113H425.5L439.5 152.5L504.5 161V156.5L453 143.5L432.5 113Z" fill="#E7E7E7"/>
<path d="M639 56L641 31.5H660V56H639Z" fill="url(#paint2_linear)"/>
<path d="M701.5 104.5L659.5 79.5L586.5 124C586.5 124 580 127 576.5 135.5C573 144 583.5 152.5 583.5 152.5L631 181L650 169L608 144C608 144 605.378 141.153 605.5 138.5C605.615 136.002 609.5 133.5 609.5 133.5L660 102.5L682.5 116L701.5 104.5Z" fill="url(#paint3_linear)"/>
<path d="M639.5 67.5L600 44L581 55.5L601 67.5L541.5 103.5H522V127H561.5L583.5 114L570 109L639.5 67.5Z" fill="url(#paint4_linear)"/>
<path d="M691 50L670 61L722 92L741.5 80L691 50Z" fill="url(#paint5_linear)"/>
<path fill-rule="evenodd" clip-rule="evenodd" d="M1095.5 246.5L1173.5 293.5L1158.5 303L1116.5 284C1116.5 284 1109.5 281 1102.5 281C1095.5 281 1090 284 1090 284L986.5 347C986.5 347 979.5 350.5 978.5 357C977.5 363.5 984 369 984 369L1010.5 390L996 400L919 352.5L945.549 336.555C950.439 327.734 946.507 321.381 937.5 316.5L780 222L877.5 163L1046 263.5C1053.82 266.712 1060.79 266.207 1068.5 262.715L1095.5 246.5ZM858.5 198L819 222L976 316.5L1016 293L858.5 198Z" fill="#D4D4D4"/>
<path d="M1002.7 182.631L1021.47 171.474L1024 173.5L1022.5 178L1051.5 196.5C1051.18 197.3 1054.29 195.773 1055 192C1055.71 188.227 1040.5 167.5 1040.5 167.5L1032.5 168.5L1029.76 166.544L1047.5 156L1049 157.5L1047.5 164L1062.5 190.5C1062.5 190.5 1067.07 191.091 1070 191.5C1077.28 192.517 1083.18 193.951 1088.84 195.328C1096.91 197.293 1104.51 199.143 1115 199.5C1119.29 199.646 1126 199.5 1126 199.5L1129.5 201L1119.04 207.436C1117.35 207.29 1114.44 207.011 1109.5 206.5C1100.69 205.589 1087.82 202.647 1077.84 200.367C1071.4 198.894 1066.16 197.696 1064 197.5C1058.5 197 1056.5 199 1056.5 199L1088.5 218.5L1097.5 217.5L1100.25 219L1080.25 231.309L1078 228.5L1080.5 224L1049 204.5C1049 204.5 1045 206.501 1046 209.5C1047 212.499 1061 236 1061 236C1061 236 1062.61 238.96 1062.68 242.117L1051.5 249L1049 247C1049 247 1050.5 245 1049 239C1048.27 236.09 1046.44 232.655 1044.37 228.775C1042.17 224.654 1039.7 220.031 1038 215C1037.15 212.483 1036 208.5 1036 208.5L987 198.5L980 200.5L976 198.5L995.06 187.17L997.5 189L994.5 194.5C994.5 194.5 1032.5 203.5 1038 203.5C1043.5 203.5 1044 201.5 1044 201.5L1015 183.5L1005.5 184.5L1002.7 182.631Z" fill="white"/>
<path d="M799.71 45.7924L856 79L677.5 186L621.5 152.5L799.71 45.7924Z" fill="#F3F3F5"/>
<path d="M544.21 556.015L600.5 589.223L522.5 636L466.5 602.5L544.21 556.015Z" fill="#D4D4D4"/>
<path d="M817.366 56.208L836.695 67.6111L660.305 174.017L659.5 174.5L639.479 162.722L817.366 56.208Z" fill="#FE4B54"/>
<path d="M561.866 566.431L581.195 577.834L504.805 624.018L504 624.5L483.979 612.722L561.866 566.431Z" fill="#F02933"/>
<path d="M855.5 79L677.5 186V238C677.5 238 708 227.55 724.5 238C741 248.45 739.5 266 739.5 266V444.5C739.5 503.2 701.31 528.157 661.609 554.102L661 554.5C661 554.5 770 489.5 794.5 473.5C819 457.5 818 427.5 818 427.5V218C818 218 816.5 196.5 826.5 172C836.5 147.5 855.5 137.5 855.5 137.5V79Z" fill="url(#paint6_linear)"/>
<path d="M621.21 206.293L677.5 239.5L677.5 186L621.5 152.5L621.21 206.293Z" fill="#D4D4D4"/>
<path d="M659.189 228.694L639.189 217L639.479 162.722L659.5 174.5L659.189 227.515V228.694Z" fill="#F02933"/>
<path d="M739.477 263.094C739.594 264.903 739.5 266 739.5 266L739.5 439.829C739.467 439.852 739.469 440.468 739.5 441.557V444.5C739.5 503.2 701.31 528.157 661.609 554.102L661.151 554.401L605 521.5C644.701 495.555 683.5 470.2 683.5 411.5V236.28C693.224 233.832 712.54 230.425 724.5 238C731.289 242.3 735.031 247.802 737.084 252.788C738.772 256.891 739.318 260.645 739.477 263.094Z" fill="#D4D4D4"/>
<path d="M701.159 233.466C705.424 233.225 709.841 233.35 714.018 234.116C716.351 236.857 717.967 239.721 719.084 242.433C720.772 246.536 721.318 250.29 721.476 252.739C721.594 254.547 721.5 255.644 721.5 255.644L721.5 429.474C721.467 429.497 721.469 430.112 721.5 431.201V434.144C721.5 492.844 683.31 517.801 643.609 543.746L643.151 544.045L623.5 532.5C623.687 532.378 623.871 532.25 624.055 532.123C624.239 531.996 624.422 531.868 624.609 531.746C664.31 505.801 702.5 480.844 702.5 422.144V419.201C702.469 418.112 702.467 417.497 702.5 417.474L702.5 243.644C702.5 243.644 702.594 242.547 702.476 240.739C702.358 238.91 702.024 236.353 701.159 233.466Z" fill="#F02933"/>
<defs>
<linearGradient id="paint0_linear" x1="811" y1="347.5" x2="492" y2="538" gradientUnits="userSpaceOnUse">
<stop stop-color="#A4A3A3"/>
<stop offset="0.39786" stop-color="#EDEDED"/>
<stop offset="0.503136" stop-color="#EFEFEF"/>
<stop offset="1" stop-color="#F6F7F6"/>
</linearGradient>
<linearGradient id="paint1_linear" x1="480" y1="189" x2="288.5" y2="301" gradientUnits="userSpaceOnUse">
<stop stop-color="#A2A1A1"/>
<stop offset="1" stop-color="#E7E7E7"/>
</linearGradient>
<linearGradient id="paint2_linear" x1="682.5" y1="139" x2="539.942" y2="65.2413" gradientUnits="userSpaceOnUse">
<stop stop-color="#A2A1A1"/>
<stop offset="1" stop-color="#E7E7E7"/>
</linearGradient>
<linearGradient id="paint3_linear" x1="682.5" y1="139" x2="539.942" y2="65.2413" gradientUnits="userSpaceOnUse">
<stop stop-color="#A2A1A1"/>
<stop offset="1" stop-color="#E7E7E7"/>
</linearGradient>
<linearGradient id="paint4_linear" x1="682.5" y1="139" x2="539.942" y2="65.2413" gradientUnits="userSpaceOnUse">
<stop stop-color="#A2A1A1"/>
<stop offset="1" stop-color="#E7E7E7"/>
</linearGradient>
<linearGradient id="paint5_linear" x1="682.5" y1="139" x2="539.942" y2="65.2413" gradientUnits="userSpaceOnUse">
<stop stop-color="#A2A1A1"/>
<stop offset="1" stop-color="#E7E7E7"/>
</linearGradient>
<linearGradient id="paint6_linear" x1="758" y1="229" x2="758" y2="514.5" gradientUnits="userSpaceOnUse">
<stop stop-color="white"/>
<stop offset="1" stop-color="#F6F7F6"/>
</linearGradient>
</defs>
</svg>
