<svg width="126" height="40" viewBox="0 0 126 40" fill="none" xmlns="http://www.w3.org/2000/svg">
<rect width="125.263" height="40" fill="#F6F6F8"/>
<g clip-path="url(#clip0)">
<path d="M8.96561 18.5709C7.03659 18.7943 6.78577 18.9584 6.78577 21.2741V30.3909C6.78577 33.5818 6.48479 36.2667 3.8626 38.3316C2.85039 39.1103 1.69192 39.6777 0.456033 40L0 38.9516C0.713133 38.6866 1.33855 38.2287 1.80642 37.629C2.27429 37.0293 2.5662 36.3115 2.64955 35.5556C2.88681 33.8034 2.98744 32.0355 2.95053 30.2678V21.2741C2.95053 18.9584 2.67691 18.767 0.5518 18.5709V17.5499H8.96561V18.5709Z" fill="#4D4D4D"/>
<path d="M16.7181 22.9014C17.5503 22.8722 18.3798 23.0127 19.1559 23.3143C19.9321 23.6159 20.6387 24.0724 21.2326 24.6559C21.8266 25.2393 22.2954 25.9376 22.6106 26.708C22.9258 27.4785 23.0808 28.305 23.066 29.1373C23.066 33.5772 19.8738 35.8108 16.6086 35.8108C12.445 35.8108 10.0691 32.6655 10.0691 29.4291C10.0691 25.2171 13.5486 22.9014 16.7181 22.9014ZM16.3897 24.0046C15.204 24.0046 14.0457 25.2444 14.0457 28.6405C14.0457 32.0365 15.1767 34.6803 16.9141 34.6803C17.963 34.6803 19.094 33.9601 19.094 29.935C19.094 26.1014 18.0998 24.0046 16.3897 24.0046Z" fill="#4D4D4D"/>
<path d="M38.8494 34.8171C37.194 35.0359 35.4291 35.396 33.605 35.8108V33.9327C32.474 34.8718 31.3248 35.8108 29.7971 35.8108C27.4805 35.8108 26.1853 34.3202 26.1853 31.8678V26.1561C26.1853 24.8889 26.0166 24.7521 25.2733 24.5561L24.6941 24.392V23.5077C26.0987 23.453 28.2785 23.2615 29.8245 23.0518C29.7697 24.2097 29.7424 25.6456 29.7424 27.2182V31.2433C29.7424 33.0393 30.6544 33.6456 31.6212 33.6456C31.9927 33.6661 32.364 33.6026 32.7075 33.4598C33.051 33.3169 33.3578 33.0984 33.605 32.8205V26.1834C33.605 24.9162 33.4682 24.6928 32.6929 24.5561L31.8629 24.392V23.5077C33.6452 23.4491 35.4231 23.297 37.1894 23.0518V32.0319C37.1894 33.4632 37.3536 33.7686 38.2383 33.8552L38.8448 33.9099L38.8494 34.8171Z" fill="#4D4D4D"/>
<path d="M47.2907 35.4781H39.9941V34.539C41.458 34.3749 41.5948 34.2382 41.5948 32.5835V26.5436C41.5948 25.1761 41.4854 25.0257 40.1857 24.7522V23.8952C41.8694 23.7055 43.5309 23.3544 45.1473 22.8467V25.8279C46.3923 23.9225 47.3819 22.9014 48.5174 22.9014C48.7453 22.8859 48.9739 22.9171 49.1893 22.9929C49.4048 23.0688 49.6024 23.1879 49.7702 23.3428C49.938 23.4977 50.0724 23.6852 50.1651 23.8938C50.2579 24.1025 50.307 24.3278 50.3096 24.5561C50.3086 25.0347 50.179 25.5043 49.9343 25.9156C49.6896 26.327 49.3389 26.6651 48.9187 26.8946C48.7797 26.9621 48.6233 26.9852 48.4707 26.9607C48.3182 26.9362 48.1768 26.8654 48.0659 26.7579C47.6099 26.3704 47.2359 25.9328 46.7662 25.9328C46.2965 25.9328 45.6626 26.2929 45.1473 27.3504V32.5926C45.1473 34.2473 45.3434 34.3294 47.2724 34.5482L47.2907 35.4781Z" fill="#4D4D4D"/>
<path d="M59.5123 35.4781V34.539C60.6752 34.3749 60.7572 34.2655 60.7572 32.3601V27.6467C60.7572 25.6866 59.7905 25.0804 58.8237 25.0804C58.0596 25.1154 57.3299 25.4078 56.7533 25.91V32.5835C56.7533 34.2655 56.8673 34.3749 57.9982 34.539V35.4781H51.6138V34.539C53.0503 34.2929 53.2144 34.2655 53.2144 32.4741V26.7351C53.2144 25.0804 52.9956 24.9983 51.7779 24.7522V23.8678C53.4903 23.6709 55.1815 23.32 56.8308 22.8194C56.8034 23.2069 56.7715 24.1869 56.7715 24.8069C57.3233 24.4194 57.907 24.0046 58.5409 23.6171C59.1689 23.1653 59.9198 22.9156 60.6934 22.9014C62.928 22.9014 64.3417 24.5288 64.3417 27.3413V32.5561C64.3417 34.2655 64.5104 34.3476 65.8329 34.539V35.4781H59.5123Z" fill="#4D4D4D"/>
<path d="M76.5088 35.8108C75.8842 35.8343 75.2726 35.6283 74.7895 35.2319C74.478 34.9489 74.2334 34.6001 74.0735 34.2108C73.0247 34.8991 71.6748 35.8108 71.1504 35.8108C70.6697 35.8248 70.1911 35.7436 69.7419 35.572C69.2928 35.4004 68.882 35.1417 68.5332 34.8109C68.1844 34.48 67.9045 34.0835 67.7095 33.6441C67.5146 33.2048 67.4084 32.7312 67.3972 32.2507C67.3972 30.792 68.0585 30.1265 69.5223 29.5476C71.1504 28.9413 73.3302 28.2803 73.9641 27.7242V26.5162C73.9641 25.0803 73.4397 24.2826 72.254 24.2826C72.0381 24.2803 71.8248 24.329 71.6314 24.4249C71.438 24.5208 71.27 24.661 71.1412 24.8342C70.8083 25.29 70.6852 25.8279 70.48 26.6575C70.4393 26.931 70.2971 27.1791 70.0815 27.3523C69.866 27.5255 69.593 27.6111 69.3171 27.592C68.6011 27.592 67.6891 26.9265 67.6891 26.1561C67.6891 25.6593 68.022 25.3037 68.6559 24.8615C69.998 23.9492 71.4933 23.2853 73.0703 22.9014C74.0747 22.8684 75.0645 23.1488 75.9022 23.7037C77.0925 24.5288 77.4208 25.6866 77.4208 27.0952V31.8678C77.4208 33.1897 77.8769 33.5225 78.3055 33.5225C78.6025 33.5097 78.8932 33.4335 79.1583 33.2991L79.4638 34.2382L76.5088 35.8108ZM73.9732 28.8593L72.4273 29.7162C71.5699 30.1721 71.0592 30.6279 71.0592 31.5897C71.0592 33.135 72.1354 33.6866 72.7419 33.6866C72.965 33.7023 73.1889 33.6697 73.3982 33.591C73.6076 33.5123 73.7975 33.3895 73.955 33.2308L73.9732 28.8593Z" fill="#4D4D4D"/>
<path d="M80.0977 35.478V34.539C81.671 34.2929 81.7257 34.1561 81.7257 32.4194V19.8701C81.7257 18.4342 81.5615 18.2701 80.125 17.9647V17.0803C81.8689 16.9372 83.5956 16.632 85.2828 16.1686V32.4421C85.2828 34.2655 85.3694 34.3704 86.9427 34.5618V35.5008L80.0977 35.478Z" fill="#4D4D4D"/>
<path d="M104.158 26.8171C103.442 24.8889 102.502 24.0046 101.203 24.0046C101.009 23.9989 100.816 24.0328 100.637 24.1044C100.457 24.176 100.293 24.2836 100.157 24.4207C100.02 24.5578 99.9126 24.7215 99.8416 24.9015C99.7705 25.0816 99.7371 25.2743 99.7434 25.4678C99.7434 26.4342 100.432 26.9584 101.869 27.592C104.103 28.5858 105.622 29.5202 105.622 31.6946C105.622 34.4296 103 35.7972 100.605 35.7972C99.3944 35.7559 98.2037 35.4739 97.103 34.9675C96.9936 34.3339 96.7427 32.4331 96.647 31.4667L97.559 31.3026C98.1382 33.0393 99.2692 34.6667 101.061 34.6667C102.11 34.6667 102.635 34.0331 102.635 33.2308C102.635 32.4285 102.22 31.7402 100.51 30.9151C98.6854 30.0308 96.9252 29.0644 96.9252 26.7761C96.9252 24.5972 98.7174 22.8878 101.641 22.8878C102.648 22.908 103.649 23.0472 104.623 23.3026C104.705 24.0456 104.951 25.8143 105.079 26.5573L104.158 26.8171Z" fill="#4D4D4D"/>
<path d="M112.959 35.5054C112.615 35.6775 112.24 35.7812 111.856 35.8108C109.731 35.8108 108.463 34.8171 108.463 32.3054V24.6154H106.712L106.548 24.2872L107.35 23.2387H108.481V20.9687C109.393 20.3031 110.761 19.4234 111.737 18.7624L112.093 18.9812C112.066 19.7242 112.011 21.1875 112.038 23.257H114.797C114.909 23.4789 114.949 23.7306 114.909 23.9762C114.87 24.2218 114.754 24.4486 114.578 24.6245H112.038V31.3709C112.038 33.5225 112.923 33.7687 113.447 33.7687C113.903 33.7682 114.353 33.6736 114.77 33.4906L115.048 34.4843L112.959 35.5054Z" fill="#4D4D4D"/>
<path d="M123.804 26.8171C123.083 24.8889 122.148 24.0046 120.849 24.0046C120.655 23.9989 120.462 24.0328 120.282 24.1044C120.103 24.176 119.939 24.2836 119.802 24.4207C119.666 24.5578 119.559 24.7215 119.487 24.9015C119.416 25.0816 119.383 25.2743 119.389 25.4678C119.389 26.4342 120.078 26.9584 121.514 27.592C123.749 28.5858 125.263 29.5202 125.263 31.6946C125.263 34.4296 122.645 35.7971 120.247 35.7971C119.037 35.7602 117.846 35.4828 116.744 34.9812C116.635 34.3476 116.384 32.4467 116.288 31.4803L117.2 31.3162C117.78 33.053 118.911 34.6803 120.703 34.6803C121.752 34.6803 122.276 34.0467 122.276 33.2444C122.276 32.4422 121.861 31.7538 120.151 30.9288C118.327 30.0444 116.567 29.0781 116.567 26.7897C116.567 24.6108 118.359 22.9014 121.282 22.9014C122.289 22.922 123.29 23.0612 124.264 23.3162C124.346 24.0593 124.593 25.8279 124.72 26.5709L123.804 26.8171Z" fill="#4D4D4D"/>
<path d="M92.2053 18.2837H89.7701C89.4583 18.2739 89.1553 18.3877 88.9272 18.6003C88.6991 18.813 88.5644 19.1072 88.5525 19.4188V21.8803H93.4229V19.4188C93.411 19.1072 93.2763 18.813 93.0482 18.6003C92.8201 18.3877 92.5171 18.2739 92.2053 18.2837Z" fill="#FE4B54"/>
<path d="M93.423 32.629H88.4294L90.9285 35.478L93.423 32.629Z" fill="#FE4B54"/>
<path d="M88.4294 22.8832V23.6672V31.8268H88.776V24.8251C89.7519 24.9801 89.8659 25.2353 89.8659 26.8992V31.8268H93.423V22.8741L88.4294 22.8832Z" fill="#FE4B54"/>
<path d="M8.05807 2.94471C7.94762 2.48457 7.75614 2.04775 7.49259 1.65468C7.25545 1.3675 7.15056 1.27633 6.38443 1.27633H5.5362V7.45297C5.5362 8.5561 5.66389 8.63815 6.8359 8.72932V9.21707H2.47166V8.72932C3.58894 8.63815 3.70751 8.5561 3.70751 7.45297V1.27633H2.90489C2.16612 1.27633 1.95634 1.39485 1.70553 1.73217C1.47418 2.1161 1.29332 2.52823 1.16741 2.95838H0.665771C0.761538 1.99656 0.852745 0.970918 0.880107 0.341858H1.2723C1.46839 0.642713 1.628 0.670063 2.02475 0.670063H7.29649C7.43858 0.681443 7.58128 0.657417 7.7118 0.600139C7.84232 0.542861 7.9566 0.454118 8.04439 0.341858H8.42745C8.42745 0.893425 8.4913 2.05126 8.5597 2.90368L8.05807 2.94471Z" fill="#4D4D4D"/>
<path d="M13.0151 9.21709V8.76125C13.5942 8.66553 13.6353 8.57436 13.6353 7.84957V5.56125C13.6353 4.54929 13.2157 4.19373 12.7232 4.19373C12.3669 4.19036 12.0233 4.32611 11.7655 4.57208V7.85869C11.7655 8.5698 11.8294 8.66097 12.4359 8.77037V9.22621H9.28015V8.77037C9.92772 8.68832 10.0326 8.66097 10.0326 7.82222V1.73675C10.0326 1.13048 9.95052 0.984615 9.21631 0.866097V0.45584C10.0664 0.38361 10.9078 0.230981 11.7291 0V4.07521C12.1925 3.57878 12.8257 3.27454 13.503 3.22279C14.6477 3.22279 15.3272 3.97037 15.3272 5.41538V7.82222C15.3272 8.65185 15.4184 8.66553 16.0477 8.77037V9.22621L13.0151 9.21709Z" fill="#4D4D4D"/>
<path d="M22.0126 7.92705C21.7601 8.34535 21.4091 8.69565 20.9903 8.94749C20.5714 9.19932 20.0974 9.34508 19.6093 9.37207C17.8491 9.37207 16.8503 8.07292 16.8503 6.50939C16.8639 5.62254 17.2163 4.77445 17.8354 4.13902C18.3727 3.57703 19.1101 3.24946 19.8875 3.22734C20.1708 3.22554 20.4516 3.27952 20.714 3.38622C20.9764 3.49291 21.2152 3.65022 21.4168 3.84917C21.6184 4.04812 21.7788 4.2848 21.8888 4.54571C21.9989 4.80662 22.0564 5.08664 22.0582 5.36979C22.0582 5.59315 22.0582 5.82563 21.8849 5.85298C21.6341 5.92136 19.7826 6.01252 18.5057 6.06267C18.5605 7.45754 19.3357 8.16865 20.2797 8.16865C20.8359 8.16302 21.3703 7.95194 21.7801 7.57606L22.0126 7.92705ZM19.6093 3.76067C19.0849 3.76067 18.638 4.37606 18.5559 5.41537L20.1475 5.37891C20.3344 5.37891 20.412 5.33788 20.412 5.11452C20.4348 4.45811 20.1338 3.76067 19.6093 3.76067Z" fill="#4D4D4D"/>
<path d="M29.8381 0.670105C31.5209 0.670105 32.7568 1.02566 33.6004 1.81426C33.9913 2.17969 34.2991 2.62482 34.5029 3.11951C34.7067 3.6142 34.8017 4.14689 34.7815 4.6815C34.8048 5.34287 34.6676 6.00004 34.3817 6.59694C34.0959 7.19385 33.6698 7.71276 33.1398 8.10942C32.0562 8.87999 30.7474 9.26956 29.4186 9.21711H25.8023V8.72936C26.801 8.66099 26.9059 8.53335 26.9059 7.43934V2.42509C26.9059 1.32196 26.7599 1.21711 25.7886 1.13962V0.670105H29.8381ZM28.73 7.34817C28.73 8.28264 28.9626 8.59717 29.9248 8.59717C31.6988 8.59717 32.7248 7.36184 32.7248 4.87751C32.7248 3.62851 32.3828 2.53905 31.7808 1.97381C31.4985 1.7097 31.1639 1.50757 30.7987 1.38039C30.4335 1.25321 30.0457 1.20381 29.6603 1.23535C29.3841 1.20287 29.1052 1.26732 28.8714 1.41768C28.7528 1.5362 28.73 1.75956 28.73 2.14247V7.34817Z" fill="#4D4D4D"/>
<path d="M35.835 9.21709V8.76125C36.5464 8.66552 36.6239 8.61538 36.6239 7.68091V5.1282C36.6239 4.24387 36.5601 4.19373 35.9398 4.11623V3.66039C36.7406 3.57045 37.5323 3.41339 38.3067 3.19088V7.67179C38.3067 8.58347 38.3614 8.65641 39.123 8.75213V9.20797L35.835 9.21709ZM37.3946 2.40683C37.1469 2.40336 36.9102 2.30408 36.7341 2.12983C36.5581 1.95558 36.4565 1.71992 36.4506 1.47236C36.4589 1.22529 36.5639 0.99136 36.743 0.820872C36.9221 0.650384 37.161 0.556955 37.4083 0.560678C37.533 0.555645 37.6575 0.576267 37.7739 0.621269C37.8904 0.66627 37.9964 0.734692 38.0853 0.822296C38.1742 0.9099 38.2442 1.01482 38.2909 1.13056C38.3376 1.2463 38.36 1.37039 38.3568 1.49515C38.3485 1.74302 38.2428 1.97764 38.0628 2.14826C37.8827 2.31888 37.6427 2.41176 37.3946 2.40683Z" fill="#4D4D4D"/>
<path d="M41.7132 7.1658C41.5843 7.28614 41.5006 7.44704 41.4761 7.62164C41.4761 7.83132 41.7269 8.10939 42.2285 8.10939H43.7107C44.5133 8.10939 45.6853 8.43759 45.6853 9.72306C45.6853 11.2091 43.8611 12.3943 42.1191 12.3943C40.3771 12.3943 39.6246 11.551 39.6246 10.8262C39.6191 10.682 39.6527 10.539 39.7217 10.4122C39.7907 10.2855 39.8927 10.1797 40.0168 10.106C40.3725 9.85526 40.7145 9.65013 41.0018 9.44956C40.6008 9.3191 40.2544 9.05939 40.0168 8.7111C39.8659 8.50238 39.7918 8.24794 39.807 7.99087C40.343 7.77092 40.8264 7.44002 41.2253 7.01993L41.7132 7.1658ZM42.3471 7.29799C40.8468 7.29799 39.8709 6.49571 39.8709 5.31053C39.8709 3.89286 41.239 3.22278 42.4246 3.22278C42.9406 3.21497 43.4507 3.33228 43.9113 3.56466C44.5239 3.56 45.1347 3.49742 45.7354 3.37776L45.7993 3.48261C45.719 3.79603 45.5495 4.07946 45.3113 4.29856C45.0879 4.29856 44.7231 4.24386 44.5361 4.23474C44.7651 4.54478 44.8766 4.926 44.8507 5.31053C44.8416 6.62335 43.6331 7.29343 42.3471 7.29343V7.29799ZM42.5022 9.47691C42.0869 9.42083 41.665 9.50936 41.3074 9.72762C41.1961 9.81369 41.1053 9.92331 41.0414 10.0486C40.9775 10.1739 40.9422 10.3118 40.938 10.4524C40.938 11.1498 41.5947 11.6877 42.7256 11.6877C43.738 11.6877 44.3719 11.2319 44.3719 10.5025C44.3764 10.2899 44.3064 10.0824 44.174 9.91589C44.0416 9.74939 43.8551 9.63442 43.6468 9.59087C43.2723 9.50087 42.8871 9.46253 42.5022 9.47691ZM42.3562 3.71964C41.9504 3.71964 41.5445 4.20739 41.5445 5.16466C41.5445 6.12192 41.8455 6.79657 42.4566 6.79657C42.9719 6.79657 43.2592 6.25867 43.2592 5.31053C43.2637 4.4809 42.9901 3.71964 42.3562 3.71964Z" fill="#4D4D4D"/>
<path d="M46.2097 9.2171V8.76126C46.9211 8.66553 46.9987 8.61539 46.9987 7.68092V5.12821C46.9987 4.24388 46.9348 4.19374 46.3146 4.11624V3.6604C47.1196 3.57613 47.9159 3.42363 48.6951 3.20456V7.68547C48.6951 8.59716 48.7498 8.67009 49.5114 8.76582V9.22166L46.2097 9.2171ZM47.7511 2.40684C47.503 2.40341 47.2657 2.30428 47.089 2.13014C46.9122 1.95601 46.8096 1.72034 46.8026 1.47237C46.8109 1.2245 46.9165 0.989876 47.0966 0.819261C47.2767 0.648645 47.5167 0.555756 47.7648 0.560689C47.8892 0.556294 48.0131 0.577389 48.129 0.622677C48.245 0.667964 48.3504 0.736486 48.4388 0.824023C48.5272 0.91156 48.5968 1.01626 48.6432 1.13168C48.6897 1.2471 48.712 1.3708 48.7088 1.49516C48.7004 1.74223 48.5954 1.97616 48.4164 2.14665C48.2373 2.31714 47.9984 2.41057 47.7511 2.40684Z" fill="#4D4D4D"/>
<path d="M52.8543 9.23075C52.6887 9.31133 52.5091 9.3593 52.3253 9.37207C51.3129 9.37207 50.711 8.91622 50.711 7.70369V4.05697H49.8673L49.7898 3.90198L50.1683 3.40056H50.711V2.27919C51.167 1.96466 51.8009 1.54073 52.2615 1.2262L52.4302 1.33104C52.4302 1.6866 52.3937 2.38403 52.4302 3.36865H53.7436C53.797 3.47527 53.8157 3.59596 53.7968 3.71372C53.778 3.83149 53.7227 3.94038 53.6387 4.02506H52.4302V7.24785C52.4302 8.27349 52.8498 8.39201 53.1006 8.39201C53.3171 8.3907 53.5312 8.34574 53.7299 8.25982L53.8622 8.71566L52.8543 9.23075Z" fill="#4D4D4D"/>
<path d="M58.7325 9.37206C58.4387 9.3872 58.1491 9.29664 57.9162 9.11679C57.7668 8.98212 57.6499 8.81536 57.5742 8.62904C57.1537 8.95719 56.6824 9.21434 56.1788 9.39029C55.9495 9.39819 55.721 9.3604 55.5065 9.27912C55.292 9.19783 55.0959 9.07469 54.9295 8.91685C54.7631 8.75902 54.6298 8.56966 54.5374 8.35981C54.4449 8.14996 54.3952 7.92381 54.3911 7.69456C54.3911 6.99713 54.7058 6.6826 55.4035 6.40909C56.1788 6.11736 57.2276 5.80282 57.5195 5.53844V4.94129C57.5195 4.25753 57.2732 3.87918 56.7078 3.87918C56.6054 3.87829 56.5043 3.90132 56.4125 3.94643C56.3206 3.99155 56.2406 4.05749 56.1788 4.13901C56.0221 4.40945 55.9155 4.70594 55.8641 5.01422C55.848 5.14896 55.7799 5.27207 55.6742 5.35725C55.5686 5.44243 55.4338 5.48292 55.2986 5.47006C55.1095 5.46568 54.928 5.39468 54.7862 5.26958C54.6443 5.14448 54.5513 4.97332 54.5234 4.7863C54.5234 4.54926 54.683 4.37604 54.9794 4.16636C55.6204 3.74004 56.3323 3.43132 57.0817 3.25468C57.5661 3.23459 58.0446 3.36692 58.4498 3.63302C58.7011 3.81637 58.9001 4.06209 59.0273 4.3459C59.1545 4.62971 59.2053 4.94178 59.1749 5.25126V7.53046C59.1749 8.15952 59.3847 8.31907 59.5944 8.31907C59.737 8.3129 59.8768 8.2772 60.0049 8.21422L60.1462 8.67006L58.7325 9.37206ZM57.5195 6.0581L56.7853 6.46835C56.5955 6.53289 56.431 6.65588 56.3155 6.81968C56.1999 6.98347 56.1393 7.17965 56.1423 7.38003C56.1179 7.61849 56.1885 7.85694 56.3387 8.04378C56.4889 8.23061 56.7067 8.3508 56.9449 8.37832C57.0501 8.38642 57.1558 8.37189 57.2549 8.33572C57.354 8.29955 57.4443 8.24258 57.5195 8.16864V6.0581Z" fill="#4D4D4D"/>
<path d="M60.4426 9.21709V8.76125C61.1905 8.64273 61.2179 8.57436 61.2179 7.74929V1.77322C61.2179 1.08946 61.1404 1.01197 60.4563 0.861538V0.45584C61.294 0.380612 62.123 0.228014 62.9326 0V7.74929C62.9326 8.61538 62.9736 8.66097 63.7215 8.76125V9.21709H60.4426Z" fill="#4D4D4D"/>
</g>
<defs>
<clipPath id="clip0">
<path d="M0 0H125.263V40H0V0Z" fill="white"/>
</clipPath>
</defs>
</svg>
