<svg width="176" height="176" viewBox="0 0 176 176" fill="none" xmlns="http://www.w3.org/2000/svg">
<rect width="16" height="16" fill="#E2DCDC"/>
<rect y="32" width="16" height="16" fill="#E2DCDC"/>
<rect y="64" width="16" height="16" fill="#E2DCDC"/>
<rect y="96" width="16" height="16" fill="#E2DCDC"/>
<rect y="128" width="16" height="16" fill="#E2DCDC"/>
<rect y="160" width="16" height="16" fill="#E2DCDC"/>
<rect x="32" width="16" height="16" fill="#E2DCDC"/>
<rect x="32" y="32" width="16" height="16" fill="#E2DCDC"/>
<rect x="32" y="64" width="16" height="16" fill="#E2DCDC"/>
<rect x="32" y="96" width="16" height="16" fill="#E2DCDC"/>
<rect x="32" y="128" width="16" height="16" fill="#E2DCDC"/>
<rect x="32" y="160" width="16" height="16" fill="#E2DCDC"/>
<rect x="64" width="16" height="16" fill="#E2DCDC"/>
<rect x="64" y="32" width="16" height="16" fill="#E2DCDC"/>
<rect x="64" y="64" width="16" height="16" fill="#E2DCDC"/>
<rect x="64" y="96" width="16" height="16" fill="#E2DCDC"/>
<rect x="64" y="128" width="16" height="16" fill="#E2DCDC"/>
<rect x="64" y="160" width="16" height="16" fill="#E2DCDC"/>
<rect x="96" width="16" height="16" fill="#E2DCDC"/>
<rect x="96" y="32" width="16" height="16" fill="#E2DCDC"/>
<rect x="96" y="64" width="16" height="16" fill="#E2DCDC"/>
<rect x="96" y="96" width="16" height="16" fill="#E2DCDC"/>
<rect x="96" y="128" width="16" height="16" fill="#E2DCDC"/>
<rect x="96" y="160" width="16" height="16" fill="#E2DCDC"/>
<rect x="128" width="16" height="16" fill="#E2DCDC"/>
<rect x="128" y="32" width="16" height="16" fill="#E2DCDC"/>
<rect x="128" y="64" width="16" height="16" fill="#E2DCDC"/>
<rect x="128" y="96" width="16" height="16" fill="#E2DCDC"/>
<rect x="128" y="128" width="16" height="16" fill="#E2DCDC"/>
<rect x="128" y="160" width="16" height="16" fill="#E2DCDC"/>
<rect x="160" width="16" height="16" fill="#E2DCDC"/>
<rect x="160" y="32" width="16" height="16" fill="#E2DCDC"/>
<rect x="160" y="64" width="16" height="16" fill="#E2DCDC"/>
<rect x="160" y="96" width="16" height="16" fill="#E2DCDC"/>
<rect x="160" y="128" width="16" height="16" fill="#E2DCDC"/>
<rect x="160" y="160" width="16" height="16" fill="#E2DCDC"/>
</svg>
